<svg width="20" height="20" viewBox="0 0 20 20" fill="none" xmlns="http://www.w3.org/2000/svg">
<g clip-path="url(#clip0_440_7271)">
<path opacity="0.992" fill-rule="evenodd" clip-rule="evenodd" d="M6.38673 0.605503C7.87657 0.569613 9.08099 1.12951 10 2.28519C10.1381 2.13406 10.2878 1.99734 10.4492 1.87503C11.3345 1.8555 12.22 1.849 13.1055 1.8555C13.1055 2.06384 13.1055 2.27217 13.1055 2.4805C12.3241 2.474 11.5429 2.4805 10.7617 2.50003C10.6511 2.61071 10.5404 2.72139 10.4297 2.83207C10.4036 2.87113 10.4036 2.91019 10.4297 2.94925C10.8055 3.63023 10.9617 4.35941 10.8984 5.13675C10.8789 5.20835 10.8333 5.25394 10.7617 5.27347C9.30341 5.29953 7.84505 5.29953 6.38673 5.27347C6.31513 5.25394 6.26954 5.20835 6.25001 5.13675C6.22396 3.67842 6.22396 2.22009 6.25001 0.761753C6.27696 0.68948 6.32251 0.637394 6.38673 0.605503Z" fill="black"/>
<path fill-rule="evenodd" clip-rule="evenodd" d="M8.10547 1.58203C8.10547 2.61068 8.10547 3.63932 8.10547 4.66797C7.68879 4.66797 7.27215 4.66797 6.85547 4.66797C6.85547 3.53516 6.85547 2.40234 6.85547 1.26953C7.29508 1.28594 7.71176 1.39011 8.10547 1.58203Z" fill="#FB3B1D"/>
<path fill-rule="evenodd" clip-rule="evenodd" d="M8.10547 1.58203C8.70816 1.84588 9.18344 2.24952 9.53125 2.79297C9.29629 3.0214 9.06844 3.25578 8.84766 3.49609C8.97785 3.65234 9.12109 3.79557 9.27734 3.92578C9.48512 3.73757 9.68691 3.54226 9.88281 3.33984C10.128 3.74785 10.2518 4.19055 10.2539 4.66797C9.53777 4.66797 8.8216 4.66797 8.10547 4.66797C8.10547 3.63932 8.10547 2.61068 8.10547 1.58203Z" fill="#FD5921"/>
<path fill-rule="evenodd" clip-rule="evenodd" d="M13.7305 1.85547C14.5638 1.85547 15.3971 1.85547 16.2305 1.85547C16.2305 2.0638 16.2305 2.27214 16.2305 2.48047C15.3971 2.48047 14.5638 2.48047 13.7305 2.48047C13.7305 2.27214 13.7305 2.0638 13.7305 1.85547Z" fill="black"/>
<path opacity="0.99" fill-rule="evenodd" clip-rule="evenodd" d="M4.39453 2.16796C4.64227 2.16147 4.88965 2.16798 5.13672 2.18749C5.20832 2.20702 5.25391 2.2526 5.27344 2.32421C5.29297 3.62623 5.29949 4.92831 5.29297 6.23046C6.62449 6.21147 7.95262 6.23101 9.27734 6.28905C9.41848 7.37679 9.14504 8.35335 8.45703 9.21874C8.49609 9.2578 8.53516 9.29686 8.57422 9.33593C10.0846 9.35546 11.595 9.36198 13.1055 9.35546C13.1055 9.56378 13.1055 9.77214 13.1055 9.98046C11.4908 9.98698 9.87625 9.98046 8.26172 9.96093C8.16496 9.89675 8.07383 9.82515 7.98828 9.74608C6.68594 10.8855 5.20156 11.2046 3.53516 10.7031C1.65923 9.95339 0.682664 8.56667 0.605469 6.54296C0.694844 4.46831 1.71047 3.06858 3.65234 2.34374C3.90429 2.28182 4.15168 2.22322 4.39453 2.16796Z" fill="black"/>
<path fill-rule="evenodd" clip-rule="evenodd" d="M4.66801 2.94922C3.29933 3.72607 2.57016 4.90445 2.48051 6.48438C2.53549 8.20984 3.32976 9.45984 4.86332 10.2344C4.74684 10.2538 4.62965 10.2604 4.51176 10.2539C2.8552 9.97117 1.794 9.02066 1.32817 7.40234C1.02629 5.59801 1.64478 4.21129 3.18364 3.24219C3.64916 2.9956 4.14395 2.84586 4.66801 2.79297C4.66801 2.84505 4.66801 2.89714 4.66801 2.94922Z" fill="#FCB102"/>
<path fill-rule="evenodd" clip-rule="evenodd" d="M4.66797 2.94922C4.66145 4.17324 4.66797 5.39719 4.6875 6.62109C4.69816 6.69254 4.73074 6.75113 4.78516 6.79688C6.08383 6.85492 7.38594 6.87445 8.69141 6.85547C8.6468 7.56887 8.4059 8.20687 7.96875 8.76953C7.68172 8.47598 7.38875 8.18953 7.08984 7.91016C6.93359 8.04035 6.79035 8.18359 6.66016 8.33984C6.95254 8.6518 7.25203 8.95777 7.55859 9.25781C6.68863 10.048 5.67301 10.38 4.51172 10.2539C4.62961 10.2604 4.7468 10.2538 4.86328 10.2344C3.32972 9.45984 2.53545 8.20984 2.48047 6.48438C2.57012 4.90445 3.29929 3.72607 4.66797 2.94922Z" fill="#FED547"/>
<path fill-rule="evenodd" clip-rule="evenodd" d="M13.7305 3.10547C14.5638 3.10547 15.3971 3.10547 16.2305 3.10547C16.2305 3.3138 16.2305 3.52214 16.2305 3.73047C15.3971 3.73047 14.5638 3.73047 13.7305 3.73047C13.7305 3.52214 13.7305 3.3138 13.7305 3.10547Z" fill="black"/>
<path fill-rule="evenodd" clip-rule="evenodd" d="M16.8555 3.10547C17.6888 3.10547 18.5221 3.10547 19.3555 3.10547C19.3555 3.3138 19.3555 3.52214 19.3555 3.73047C18.5221 3.73047 17.6888 3.73047 16.8555 3.73047C16.8555 3.52214 16.8555 3.3138 16.8555 3.10547Z" fill="black"/>
<path fill-rule="evenodd" clip-rule="evenodd" d="M13.7305 4.35547C14.5638 4.35547 15.3971 4.35547 16.2305 4.35547C16.2305 4.56379 16.2305 4.77215 16.2305 4.98047C15.3971 4.98047 14.5638 4.98047 13.7305 4.98047C13.7305 4.77215 13.7305 4.56379 13.7305 4.35547Z" fill="black"/>
<path fill-rule="evenodd" clip-rule="evenodd" d="M16.8555 4.35547C17.6888 4.35547 18.5221 4.35547 19.3555 4.35547C19.3555 4.56379 19.3555 4.77215 19.3555 4.98047C18.5221 4.98047 17.6888 4.98047 16.8555 4.98047C16.8555 4.77215 16.8555 4.56379 16.8555 4.35547Z" fill="black"/>
<path fill-rule="evenodd" clip-rule="evenodd" d="M13.7305 6.85547C14.5638 6.85547 15.3971 6.85547 16.2305 6.85547C16.2305 7.06379 16.2305 7.27215 16.2305 7.48047C15.3971 7.48047 14.5638 7.48047 13.7305 7.48047C13.7305 7.27215 13.7305 7.06379 13.7305 6.85547Z" fill="black"/>
<path fill-rule="evenodd" clip-rule="evenodd" d="M16.8555 6.85547C17.6888 6.85547 18.5221 6.85547 19.3555 6.85547C19.3555 7.06379 19.3555 7.27215 19.3555 7.48047C18.5221 7.48047 17.6888 7.48047 16.8555 7.48047C16.8555 7.27215 16.8555 7.06379 16.8555 6.85547Z" fill="black"/>
<path fill-rule="evenodd" clip-rule="evenodd" d="M13.7305 8.10547C14.5638 8.10547 15.3971 8.10547 16.2305 8.10547C16.2305 8.31379 16.2305 8.52215 16.2305 8.73047C15.3971 8.73047 14.5638 8.73047 13.7305 8.73047C13.7305 8.52215 13.7305 8.31379 13.7305 8.10547Z" fill="black"/>
<path fill-rule="evenodd" clip-rule="evenodd" d="M16.8555 8.10547C17.6888 8.10547 18.5221 8.10547 19.3555 8.10547C19.3555 8.31379 19.3555 8.52215 19.3555 8.73047C18.5221 8.73047 17.6888 8.73047 16.8555 8.73047C16.8555 8.52215 16.8555 8.31379 16.8555 8.10547Z" fill="black"/>
<path fill-rule="evenodd" clip-rule="evenodd" d="M13.7305 9.35547C14.5638 9.35547 15.3971 9.35547 16.2305 9.35547C16.2305 9.56379 16.2305 9.77215 16.2305 9.98047C15.3971 9.98047 14.5638 9.98047 13.7305 9.98047C13.7305 9.77215 13.7305 9.56379 13.7305 9.35547Z" fill="black"/>
<path fill-rule="evenodd" clip-rule="evenodd" d="M16.8555 9.35547C17.6888 9.35547 18.5221 9.35547 19.3555 9.35547C19.3555 9.56379 19.3555 9.77215 19.3555 9.98047C18.5221 9.98047 17.6888 9.98047 16.8555 9.98047C16.8555 9.77215 16.8555 9.56379 16.8555 9.35547Z" fill="black"/>
<path fill-rule="evenodd" clip-rule="evenodd" d="M0.604981 11.2305C0.813313 11.2305 1.02165 11.2305 1.22998 11.2305C1.22998 13.7305 1.22998 16.2305 1.22998 18.7305C4.14666 18.7305 7.0633 18.7305 9.97998 18.7305C9.97998 18.9388 9.97998 19.1471 9.97998 19.3555C6.87779 19.3748 3.77886 19.3552 0.683106 19.2969C0.658661 19.2676 0.639129 19.235 0.624512 19.1992C0.604981 16.543 0.598469 13.8868 0.604981 11.2305Z" fill="black"/>
<path opacity="0.998" fill-rule="evenodd" clip-rule="evenodd" d="M7.01173 11.2305C7.53271 11.224 8.05356 11.2305 8.57423 11.25C8.64583 11.2695 8.69142 11.3151 8.71095 11.3867C8.737 13.5742 8.737 15.7617 8.71095 17.9492C8.69142 18.0208 8.64583 18.0664 8.57423 18.0859C8.05341 18.112 7.53255 18.112 7.01173 18.0859C6.94013 18.0664 6.89454 18.0208 6.87501 17.9492C6.84896 15.7617 6.84896 13.5742 6.87501 11.3867C6.90196 11.3145 6.94751 11.2623 7.01173 11.2305Z" fill="black"/>
<path opacity="0.998" fill-rule="evenodd" clip-rule="evenodd" d="M10.605 11.2305C10.8133 11.2305 11.0217 11.2305 11.23 11.2305C11.23 13.7305 11.23 16.2305 11.23 18.7305C11.4383 18.7305 11.6467 18.7305 11.855 18.7305C11.8485 17.7408 11.855 16.7512 11.8745 15.7617C12.5049 15.0923 13.1494 14.4347 13.8081 13.7891C13.9644 13.7109 14.1206 13.7109 14.2769 13.7891C14.7136 14.2323 15.1563 14.6685 15.605 15.0977C16.6787 14.0435 17.7464 12.9823 18.8081 11.9141C18.9644 11.8359 19.1206 11.8359 19.2769 11.9141C19.3013 11.9434 19.3208 11.9759 19.3355 12.0117C19.355 14.4596 19.3615 16.9075 19.355 19.3555C16.4612 19.3748 13.5705 19.3552 10.6831 19.2969C10.6587 19.2676 10.6391 19.235 10.6245 19.1992C10.605 16.543 10.5985 13.8868 10.605 11.2305Z" fill="black"/>
<path fill-rule="evenodd" clip-rule="evenodd" d="M7.79297 11.8555C7.79297 13.7305 7.79297 15.6055 7.79297 17.4805C7.68879 17.4805 7.58465 17.4805 7.48047 17.4805C7.48047 15.6055 7.48047 13.7305 7.48047 11.8555C7.58465 11.8555 7.68879 11.8555 7.79297 11.8555Z" fill="#FB3C1C"/>
<path fill-rule="evenodd" clip-rule="evenodd" d="M7.79297 11.8555C7.89715 11.8555 8.00129 11.8555 8.10547 11.8555C8.10547 13.7305 8.10547 15.6055 8.10547 17.4805C8.00129 17.4805 7.89715 17.4805 7.79297 17.4805C7.79297 15.6055 7.79297 13.7305 7.79297 11.8555Z" fill="#FE5A20"/>
<path opacity="0.998" fill-rule="evenodd" clip-rule="evenodd" d="M4.51173 12.4805C5.03271 12.474 5.55356 12.4805 6.07423 12.5C6.14583 12.5195 6.19142 12.5651 6.21095 12.6367C6.237 14.4075 6.237 16.1784 6.21095 17.9492C6.19142 18.0208 6.14583 18.0664 6.07423 18.0859C5.55341 18.112 5.03255 18.112 4.51173 18.0859C4.44013 18.0664 4.39454 18.0208 4.37501 17.9492C4.34896 16.1784 4.34896 14.4075 4.37501 12.6367C4.40196 12.5645 4.44751 12.5123 4.51173 12.4805Z" fill="black"/>
<path fill-rule="evenodd" clip-rule="evenodd" d="M18.7305 14.082C18.2104 14.589 17.6896 15.0968 17.168 15.6055C16.9718 15.4354 16.7895 15.2531 16.6211 15.0586C17.3098 14.3503 18.0064 13.6472 18.7109 12.9492C18.7305 13.3266 18.737 13.7042 18.7305 14.082Z" fill="#FB3C1D"/>
<path fill-rule="evenodd" clip-rule="evenodd" d="M5.29297 13.1055C5.29297 14.5638 5.29297 16.0221 5.29297 17.4805C5.18879 17.4805 5.08465 17.4805 4.98047 17.4805C4.98047 16.0221 4.98047 14.5638 4.98047 13.1055C5.08465 13.1055 5.18879 13.1055 5.29297 13.1055Z" fill="#007D93"/>
<path fill-rule="evenodd" clip-rule="evenodd" d="M5.29297 13.1055C5.39715 13.1055 5.50129 13.1055 5.60547 13.1055C5.60547 14.5638 5.60547 16.0221 5.60547 17.4805C5.50129 17.4805 5.39715 17.4805 5.29297 17.4805C5.29297 16.0221 5.29297 14.5638 5.29297 13.1055Z" fill="#00A5AA"/>
<path fill-rule="evenodd" clip-rule="evenodd" d="M18.7307 14.082C18.7373 14.7462 18.7307 15.4103 18.7112 16.0742C18.5741 15.9136 18.4114 15.881 18.2229 15.9766C17.7732 16.4329 17.3174 16.8821 16.8557 17.3242C16.6024 17.0904 16.355 16.8495 16.1136 16.6016C15.9834 16.5234 15.8531 16.5234 15.7229 16.6016C15.4815 16.8495 15.2341 17.0904 14.9807 17.3242C14.5502 16.9198 14.1336 16.5031 13.7307 16.0742C13.7246 16.0206 13.7311 15.9685 13.7503 15.918C14.0381 15.6366 14.3181 15.3502 14.5901 15.0586C14.8687 15.3176 15.1422 15.5845 15.4104 15.8594C15.5406 15.9375 15.6709 15.9375 15.8011 15.8594C16.0693 15.5845 16.3428 15.3176 16.6214 15.0586C16.7898 15.2531 16.9721 15.4354 17.1682 15.6055C17.6899 15.0968 18.2107 14.589 18.7307 14.082Z" fill="#FE5921"/>
<path opacity="0.997" fill-rule="evenodd" clip-rule="evenodd" d="M2.01172 14.3555C2.53272 14.349 3.05355 14.3555 3.57422 14.375C3.64583 14.3945 3.69141 14.4401 3.71094 14.5117C3.73698 15.6575 3.73698 16.8034 3.71094 17.9492C3.69141 18.0208 3.64583 18.0664 3.57422 18.0859C3.05339 18.112 2.53255 18.112 2.01172 18.0859C1.94011 18.0664 1.89453 18.0208 1.875 17.9492C1.84896 16.8034 1.84896 15.6575 1.875 14.5117C1.90194 14.4395 1.94752 14.3873 2.01172 14.3555Z" fill="black"/>
<path fill-rule="evenodd" clip-rule="evenodd" d="M14.5899 15.0586C14.3178 15.3502 14.0379 15.6366 13.75 15.918C13.7309 15.9685 13.7243 16.0206 13.7305 16.0742C13.5862 15.9156 13.4169 15.883 13.2227 15.9766C12.9818 16.2175 12.7409 16.4583 12.5 16.6992C12.474 16.4779 12.474 16.2565 12.5 16.0352C13.0084 15.5203 13.5227 15.0125 14.043 14.5117C14.2391 14.6818 14.4214 14.8641 14.5899 15.0586Z" fill="#FB3C1D"/>
<path fill-rule="evenodd" clip-rule="evenodd" d="M2.79297 14.9805C2.79297 15.8138 2.79297 16.6471 2.79297 17.4805C2.6888 17.4805 2.58464 17.4805 2.48047 17.4805C2.48047 16.6471 2.48047 15.8138 2.48047 14.9805C2.58464 14.9805 2.6888 14.9805 2.79297 14.9805Z" fill="#FEB300"/>
<path fill-rule="evenodd" clip-rule="evenodd" d="M2.79297 14.9805C2.89714 14.9805 3.0013 14.9805 3.10547 14.9805C3.10547 15.8138 3.10547 16.6471 3.10547 17.4805C3.0013 17.4805 2.89714 17.4805 2.79297 17.4805C2.79297 16.6471 2.79297 15.8138 2.79297 14.9805Z" fill="#FED647"/>
<path fill-rule="evenodd" clip-rule="evenodd" d="M13.7309 17.0117C13.7309 17.5846 13.7309 18.1575 13.7309 18.7305C13.3143 18.7305 12.8976 18.7305 12.4809 18.7305C12.4745 18.3527 12.4809 17.975 12.5005 17.5977C12.8005 17.2911 13.1065 16.9916 13.4184 16.6992C13.5365 16.7912 13.6406 16.8954 13.7309 17.0117Z" fill="#007C92"/>
<path fill-rule="evenodd" clip-rule="evenodd" d="M13.7305 18.7305C13.7305 18.1575 13.7305 17.5846 13.7305 17.0117C14.1014 17.3761 14.479 17.7341 14.8633 18.0859C14.971 18.1087 15.0751 18.0957 15.1758 18.0469C15.4172 17.7989 15.6646 17.558 15.918 17.3242C16.1713 17.558 16.4187 17.7989 16.6602 18.0469C16.7891 18.1203 16.9193 18.1203 17.0508 18.0469C17.5005 17.5906 17.9563 17.1414 18.418 16.6992C18.5215 16.7832 18.6192 16.8743 18.7109 16.9727C18.7305 17.5584 18.737 18.1444 18.7305 18.7305C17.0638 18.7305 15.3971 18.7305 13.7305 18.7305Z" fill="#00A4AA"/>
</g>
<defs>
<clipPath id="clip0_440_7271">
<rect width="20" height="20" fill="white"/>
</clipPath>
</defs>
</svg>
