<svg width="21" height="20" viewBox="0 0 21 20" fill="none" xmlns="http://www.w3.org/2000/svg">
<g clip-path="url(#clip0_440_7743)">
<path opacity="0.894" fill-rule="evenodd" clip-rule="evenodd" d="M7.23852 -0.0195312C7.27758 -0.0195312 7.31664 -0.0195312 7.35571 -0.0195312C7.63 0.13414 7.89696 0.303411 8.15649 0.488281C8.27414 0.865383 8.13742 1.02814 7.74633 0.976563C7.50207 0.818637 7.26117 0.655879 7.02367 0.488281C6.93246 0.247098 7.00407 0.0778273 7.23852 -0.0195312Z" fill="black"/>
<path opacity="0.957" fill-rule="evenodd" clip-rule="evenodd" d="M10.4026 -0.0195312C10.7021 -0.0195312 11.0015 -0.0195312 11.301 -0.0195312C11.676 0.0634918 12.0276 0.213231 12.3557 0.429688C12.4404 0.560184 12.4534 0.696902 12.3948 0.839844C12.2838 0.943078 12.1536 0.975629 12.0041 0.9375C10.9068 0.295532 9.9628 0.471312 9.1721 1.46484C8.65194 2.41275 8.76265 3.27863 9.50413 4.0625C9.72995 4.21758 9.9578 4.3673 10.1877 4.51172C10.2007 4.77215 10.2138 5.03254 10.2268 5.29297C10.2593 5.32551 10.2919 5.35809 10.3244 5.39062C10.676 5.41668 11.0276 5.41668 11.3791 5.39062C11.426 5.35535 11.4586 5.3098 11.4768 5.25391C11.4898 5.00652 11.5028 4.7591 11.5158 4.51172C11.7471 4.36684 11.9749 4.21711 12.1994 4.0625C12.6984 3.53297 12.9263 2.90146 12.883 2.16797C12.9416 2.09107 13.0132 2.03898 13.0979 2.01172C13.2539 2.00175 13.3645 2.06685 13.4299 2.20703C13.5262 3.36873 13.0834 4.25414 12.1018 4.86328C12.0936 5.08715 12.0676 5.30848 12.0237 5.52734C11.9756 5.65359 11.8975 5.75777 11.7893 5.83984C11.7869 6.16937 11.7609 6.49488 11.7112 6.81641C11.6503 6.905 11.5657 6.95055 11.4573 6.95312C10.9992 6.98875 10.5435 6.97574 10.0901 6.91406C10.0296 6.86664 9.98401 6.80805 9.95335 6.73828C9.94034 6.43879 9.9273 6.13934 9.91429 5.83984C9.65136 5.56953 9.54718 5.24402 9.60179 4.86328C8.58776 4.25445 8.14507 3.35602 8.27366 2.16797C8.53062 0.993117 9.24022 0.263951 10.4026 -0.0195312Z" fill="#010100"/>
<path opacity="0.894" fill-rule="evenodd" clip-rule="evenodd" d="M14.3473 -0.0195312C14.3863 -0.0195312 14.4254 -0.0195312 14.4645 -0.0195312C14.6841 0.0857891 14.7557 0.25506 14.6793 0.488281C14.4161 0.714141 14.1231 0.88341 13.8004 0.996094C13.4917 0.947824 13.4071 0.778551 13.5465 0.488281C13.8073 0.302919 14.0743 0.133648 14.3473 -0.0195312Z" fill="black"/>
<path opacity="0.999" fill-rule="evenodd" clip-rule="evenodd" d="M12.3949 0.839893C12.7481 1.15499 12.9824 1.54561 13.098 2.01177C13.0134 2.03903 12.9418 2.09112 12.8832 2.16802C12.9264 2.90151 12.6986 3.53302 12.1996 4.06255C11.9751 4.21716 11.7472 4.36689 11.516 4.51177C11.503 4.75915 11.4899 5.00657 11.4769 5.25396C11.4588 5.30985 11.4262 5.3554 11.3793 5.39067C11.0277 5.41673 10.6762 5.41673 10.3246 5.39067C10.2921 5.35814 10.2595 5.32556 10.2269 5.29302C10.2139 5.03259 10.2009 4.7722 10.1879 4.51177C9.95795 4.36735 9.7301 4.21763 9.50428 4.06255C8.7628 3.27868 8.65209 2.4128 9.17225 1.46489C9.96295 0.471362 10.907 0.295582 12.0043 0.93755C12.1538 0.975678 12.284 0.943128 12.3949 0.839893Z" fill="#FCD85E"/>
<path opacity="0.906" fill-rule="evenodd" clip-rule="evenodd" d="M6.57439 2.28515C6.90017 2.27865 7.22568 2.28516 7.55095 2.30468C7.79497 2.48099 7.80798 2.6763 7.59001 2.89062C7.23845 2.91666 6.88689 2.91666 6.53532 2.89062C6.41751 2.83091 6.36544 2.73325 6.37907 2.59765C6.38087 2.45287 6.44599 2.3487 6.57439 2.28515Z" fill="black"/>
<path opacity="0.907" fill-rule="evenodd" clip-rule="evenodd" d="M14.1519 2.28515C14.4777 2.27865 14.8032 2.28516 15.1285 2.30468C15.313 2.39981 15.3716 2.54955 15.3042 2.7539C15.2847 2.82551 15.2391 2.87109 15.1675 2.89062C14.816 2.91666 14.4644 2.91666 14.1128 2.89062C13.8993 2.6732 13.9124 2.47137 14.1519 2.28515Z" fill="black"/>
<path opacity="0.972" fill-rule="evenodd" clip-rule="evenodd" d="M9.11302 19.9805C9.00884 19.9805 8.9047 19.9805 8.80052 19.9805C8.67743 19.8775 8.63185 19.7473 8.6638 19.5898C9.07614 18.4657 9.49931 17.346 9.93333 16.2305C9.43903 16.1979 8.94427 16.1784 8.44896 16.1719C8.35431 16.1105 8.30224 16.0259 8.29271 15.918C8.83177 14.3464 9.39818 12.7839 9.99193 11.2305C10.0212 11.206 10.0538 11.1865 10.0896 11.1719C10.8578 11.1458 11.626 11.1458 12.3943 11.1719C12.569 11.2412 12.6406 11.3648 12.6091 11.543C12.2602 12.4268 11.9152 13.3123 11.574 14.1992C11.99 14.2317 12.4067 14.2513 12.824 14.2578C12.9956 14.2585 13.1583 14.291 13.3122 14.3555C13.3692 14.4674 13.3822 14.5846 13.3513 14.707C13.1104 15 12.8695 15.293 12.6286 15.5859C13.5661 15.6055 14.5036 15.612 15.4411 15.6055C16.2619 15.7247 16.9586 15.4903 17.531 14.9023C18.2224 13.8653 18.1117 12.9213 17.199 12.0703C16.7063 11.6904 16.1724 11.6058 15.5974 11.8164C15.3998 11.8827 15.2175 11.9804 15.0505 12.1094C14.7432 12.1018 14.6325 11.9521 14.7185 11.6602C14.7731 11.5988 14.8317 11.5467 14.8943 11.5039C15.2118 11.3029 15.5568 11.1727 15.9294 11.1133C15.9685 10.1821 15.5714 9.51156 14.738 9.10156C14.3077 8.94969 13.8781 8.93016 13.449 9.04297C13.2811 9.0682 13.1249 9.1268 12.9802 9.21875C12.8493 9.25508 12.7387 9.22254 12.6482 9.12109C12.1899 8.15293 11.4281 7.74277 10.363 7.89062C9.81868 8.03262 9.402 8.34512 9.11302 8.82812C9.36857 9.01855 9.58341 9.24641 9.75755 9.51172C9.75993 9.78262 9.62321 9.90629 9.34739 9.88281C8.519 8.85254 7.54243 8.68328 6.41771 9.375C5.81427 9.89875 5.57989 10.5563 5.71458 11.3477C5.71544 11.4439 5.69591 11.5351 5.65599 11.6211C5.02876 11.7134 4.50794 11.9998 4.09349 12.4805C3.61452 13.2262 3.6015 13.9814 4.05443 14.7461C4.37769 15.1977 4.81388 15.4777 5.36302 15.5859C5.80571 15.5989 6.24845 15.612 6.69114 15.625C6.79974 15.6997 6.86485 15.7974 6.88646 15.918C6.86689 16.0217 6.81482 16.1063 6.73021 16.1719C6.24845 16.1979 5.76665 16.1979 5.28489 16.1719C3.74703 15.7921 3.03739 14.8091 3.15599 13.2227C3.38539 12.1664 4.0169 11.4762 5.05052 11.1523C5.07739 10.9355 5.10341 10.7206 5.12864 10.5078C4.11142 8.81836 3.08928 7.13215 2.06224 5.44922C1.71413 4.85844 1.78575 4.33109 2.27708 3.86719C2.80452 3.54483 3.33837 3.23233 3.87864 2.92969C4.35476 2.80346 4.75189 2.92716 5.07005 3.30078C6.08568 4.99348 7.1013 6.68621 8.11693 8.37891C8.2779 8.4152 8.43415 8.4673 8.58568 8.53516C9.28677 7.4525 10.2699 7.05539 11.5349 7.34375C12.1976 7.5377 12.6988 7.9348 13.0388 8.53516C13.1949 8.46359 13.3576 8.41152 13.5271 8.37891C14.3457 7.00844 15.179 5.64777 16.0271 4.29688C16.9496 3.80384 17.8806 3.32857 18.82 2.87109C18.969 2.8899 19.0732 2.96802 19.1325 3.10547C19.1586 4.16016 19.1586 5.21484 19.1325 6.26953C18.3017 7.68602 17.4554 9.09227 16.5935 10.4883C16.5493 10.5752 16.5168 10.6663 16.4958 10.7617C16.5281 10.89 16.5411 11.0202 16.5349 11.1523C17.65 11.4277 18.3206 12.1308 18.5466 13.2617C18.6657 14.541 18.1514 15.4589 17.0036 16.0156C16.8132 16.086 16.6179 16.1381 16.4177 16.1719C14.9984 16.1849 13.5792 16.1979 12.1599 16.2109C11.1632 17.4871 10.1476 18.7436 9.11302 19.9805Z" fill="#020201"/>
<path fill-rule="evenodd" clip-rule="evenodd" d="M4.03508 3.49612C4.18247 3.48688 4.3257 3.50641 4.46476 3.55472C4.62324 3.75232 4.76648 3.96066 4.89445 4.17972C4.67621 4.32464 4.46136 4.47437 4.24992 4.62894C4.17169 4.95421 4.29539 5.09093 4.62101 5.03909C4.81304 4.93335 5.00183 4.82265 5.18742 4.70706C5.39125 5.01702 5.58004 5.33605 5.75383 5.66409C5.74816 5.69425 5.73515 5.7203 5.71476 5.74222C5.41855 5.91308 5.12558 6.08886 4.83586 6.26956C4.70597 6.62819 4.82968 6.77796 5.20695 6.71878C5.50718 6.53652 5.80668 6.36726 6.10539 6.21097C6.29781 6.51769 6.48011 6.83019 6.65226 7.14847C6.43511 7.30612 6.22027 7.4689 6.00773 7.63675C5.98343 7.93796 6.12015 8.06167 6.41789 8.00784C6.60531 7.90491 6.78761 7.79425 6.96476 7.67581C7.11718 7.88909 7.26043 8.11046 7.39445 8.33987C6.50074 8.49644 5.83015 8.96519 5.38273 9.74612C4.40617 8.13155 3.42961 6.51694 2.45304 4.90237C2.38775 4.66183 2.45936 4.47304 2.66789 4.33597C3.13917 4.07464 3.5949 3.79468 4.03508 3.49612Z" fill="#82E7F2"/>
<path fill-rule="evenodd" clip-rule="evenodd" d="M18.5273 4.43359C18.5525 4.87828 18.5264 5.30797 18.4492 5.72266C18.1221 5.64414 17.7966 5.55949 17.4727 5.46875C17.2265 5.18348 16.9661 4.91004 16.6914 4.64844C17.0773 4.43594 17.468 4.23414 17.8633 4.04297C18.1049 4.14406 18.3263 4.27426 18.5273 4.43359Z" fill="#F9E19B"/>
<path opacity="0.891" fill-rule="evenodd" clip-rule="evenodd" d="M7.86354 4.19922C8.20155 4.17918 8.33827 4.33543 8.2737 4.66797C8.0235 4.86801 7.75659 5.04379 7.47292 5.19531C7.1294 5.20309 7.00573 5.04035 7.10182 4.70703C7.35491 4.53199 7.60882 4.36273 7.86354 4.19922Z" fill="black"/>
<path opacity="0.896" fill-rule="evenodd" clip-rule="evenodd" d="M13.6056 4.19924C13.6847 4.19291 13.7629 4.19943 13.8399 4.21877C14.0809 4.35877 14.3153 4.50849 14.5431 4.66799C14.6973 4.86486 14.6713 5.04064 14.4649 5.19533C14.3868 5.22139 14.3087 5.22139 14.2306 5.19533C13.9469 5.04381 13.68 4.86803 13.4298 4.66799C13.3702 4.46248 13.4288 4.30623 13.6056 4.19924Z" fill="black"/>
<path fill-rule="evenodd" clip-rule="evenodd" d="M16.2224 5.05859C16.4804 5.24496 16.7083 5.46629 16.906 5.72266C16.932 5.76172 16.932 5.80078 16.906 5.83984C16.3344 6.78844 15.7485 7.72594 15.1482 8.65234C14.8806 8.52848 14.6007 8.44383 14.3083 8.39844C14.2679 8.33957 14.2744 8.28098 14.3279 8.22266C14.9799 7.17875 15.6114 6.12406 16.2224 5.05859Z" fill="#F0C44C"/>
<path fill-rule="evenodd" clip-rule="evenodd" d="M18.5273 4.43359C18.5662 4.8693 18.5792 5.31203 18.5664 5.76172C18.516 5.77098 18.4769 5.75797 18.4492 5.72266C18.5264 5.30797 18.5525 4.87828 18.5273 4.43359Z" fill="#A79768"/>
<path fill-rule="evenodd" clip-rule="evenodd" d="M11.145 6.34766C11.145 6.24348 11.145 6.13934 11.145 6.03516C10.9497 6.03516 10.7544 6.03516 10.5591 6.03516C10.5591 6.13934 10.5591 6.24348 10.5591 6.34766C10.5209 6.23879 10.5079 6.1216 10.52 5.99609C10.7414 5.99609 10.9627 5.99609 11.1841 5.99609C11.1962 6.1216 11.1832 6.23879 11.145 6.34766Z" fill="#474E54"/>
<path fill-rule="evenodd" clip-rule="evenodd" d="M11.1445 6.34766C10.9492 6.34766 10.7539 6.34766 10.5586 6.34766C10.5586 6.24348 10.5586 6.13934 10.5586 6.03516C10.7539 6.03516 10.9492 6.03516 11.1445 6.03516C11.1445 6.13934 11.1445 6.24348 11.1445 6.34766Z" fill="#85919D"/>
<path fill-rule="evenodd" clip-rule="evenodd" d="M17.4336 6.07422C17.7467 6.1525 18.0592 6.23063 18.3711 6.30859C17.7056 7.49594 17.009 8.66781 16.2812 9.82422C16.1127 9.51945 15.9109 9.23949 15.6758 8.98438C16.257 8.01063 16.8429 7.04059 17.4336 6.07422Z" fill="#FAD65D"/>
<path opacity="0.999" fill-rule="evenodd" clip-rule="evenodd" d="M13.4493 9.04293C13.6522 9.12895 13.828 9.25914 13.9767 9.43356C14.4516 10.0181 14.6143 10.6822 14.465 11.4257C14.6208 11.4107 14.764 11.4368 14.8947 11.5039C14.832 11.5467 14.7734 11.5988 14.7189 11.6601C14.6329 11.9521 14.7436 12.1018 15.0509 12.1093C15.2179 11.9803 15.4002 11.8827 15.5978 11.8164C16.4498 12.465 16.7298 13.3113 16.4376 14.3554C16.2397 14.8847 15.9076 15.3014 15.4415 15.6054C14.504 15.612 13.5665 15.6054 12.629 15.5859C12.8699 15.2929 13.1108 15 13.3517 14.707C13.3825 14.5846 13.3695 14.4674 13.3126 14.3554C13.1587 14.291 12.9959 14.2584 12.8243 14.2578C12.4071 14.2512 11.9904 14.2317 11.5743 14.1992C11.9156 13.3122 12.2606 12.4268 12.6095 11.5429C12.641 11.3648 12.5694 11.2411 12.3947 11.1718C11.6264 11.1458 10.8582 11.1458 10.09 11.1718C10.0542 11.1864 10.0216 11.206 9.99231 11.2304C9.39856 12.7839 8.83216 14.3464 8.29309 15.9179C7.82434 15.9179 7.35559 15.9179 6.88684 15.9179C6.86524 15.7973 6.80012 15.6997 6.69153 15.625C6.24883 15.612 5.8061 15.5989 5.36341 15.5859C4.81426 15.4776 4.37808 15.1977 4.05481 14.7461C3.60189 13.9814 3.61491 13.2262 4.09387 12.4804C4.50833 11.9998 5.02915 11.7133 5.65637 11.6211C5.6963 11.535 5.71583 11.4439 5.71497 11.3476C5.58028 10.5563 5.81466 9.89871 6.41809 9.37496C7.54282 8.68324 8.51938 8.8525 9.34778 9.88277C9.6236 9.90625 9.76032 9.78258 9.75794 9.51168C9.5838 9.24637 9.36895 9.01852 9.11341 8.82809C9.40239 8.34508 9.81907 8.03258 10.3634 7.89059C11.4285 7.74274 12.1902 8.15289 12.6486 9.12106C12.7391 9.2225 12.8497 9.25504 12.9806 9.21871C13.1252 9.12676 13.2815 9.06817 13.4493 9.04293Z" fill="#EFA7CF"/>
<path fill-rule="evenodd" clip-rule="evenodd" d="M14.8945 11.5039C14.7639 11.4368 14.6207 11.4108 14.4648 11.4258C14.6142 10.6822 14.4514 10.0181 13.9766 9.43357C13.8279 9.25916 13.6521 9.12896 13.4492 9.04295C13.8783 8.93014 14.308 8.94967 14.7383 9.10154C15.5716 9.51154 15.9688 10.1821 15.9297 11.1133C15.5571 11.1727 15.2121 11.3029 14.8945 11.5039Z" fill="#E787BD"/>
<path fill-rule="evenodd" clip-rule="evenodd" d="M10.4023 11.7383C10.8971 11.7383 11.3919 11.7383 11.8867 11.7383C11.5743 12.6169 11.2422 13.4893 10.8906 14.3555C10.8368 14.5273 10.8823 14.664 11.0273 14.7656C11.5107 14.777 11.9925 14.8095 12.4727 14.8633C11.6254 15.8993 10.7855 16.941 9.95312 17.9883C10.1553 17.3301 10.3896 16.6791 10.6562 16.0352C10.7204 15.8427 10.6618 15.7059 10.4805 15.625C9.99887 15.6055 9.51711 15.5989 9.03516 15.6055C9.4675 14.3085 9.9232 13.0194 10.4023 11.7383Z" fill="#FAD65D"/>
<path fill-rule="evenodd" clip-rule="evenodd" d="M15.4414 15.6055C15.9075 15.3015 16.2395 14.8848 16.4375 14.3555C16.7296 13.3114 16.4497 12.4651 15.5977 11.8164C16.1727 11.6058 16.7066 11.6904 17.1992 12.0703C18.112 12.9213 18.2227 13.8653 17.5312 14.9024C16.9588 15.4903 16.2622 15.7247 15.4414 15.6055Z" fill="#E787BD"/>
</g>
<defs>
<clipPath id="clip0_440_7743">
<rect width="20" height="20" fill="white" transform="translate(0.5)"/>
</clipPath>
</defs>
</svg>
