<svg width="21" height="20" viewBox="0 0 21 20" fill="none" xmlns="http://www.w3.org/2000/svg">
<g clip-path="url(#clip0_440_7238)">
<path opacity="0.968" fill-rule="evenodd" clip-rule="evenodd" d="M1.76953 -0.0195312C2.01693 -0.0195312 2.26432 -0.0195312 2.51172 -0.0195312C3.57125 0.35415 3.9814 1.09634 3.74219 2.20703C3.6213 2.51671 3.4325 2.77713 3.17578 2.98828C3.46875 3.60026 3.76172 4.21223 4.05469 4.82422C4.07661 4.84461 4.10266 4.85762 4.13281 4.86328C6.23297 4.2993 7.87359 4.9243 9.05469 6.73828C10.2668 6.23887 11.4713 5.72453 12.668 5.19531C12.527 4.80527 12.4619 4.40164 12.4727 3.98438C12.4713 3.62139 12.5104 3.26331 12.5898 2.91016C12.257 2.79923 11.9249 2.68204 11.5938 2.55859C10.9295 3.37635 10.1287 3.53911 9.19141 3.04688C8.4343 2.4146 8.27156 1.65288 8.70312 0.761719C8.96316 0.361969 9.32125 0.101552 9.77734 -0.0195312C10.0247 -0.0195312 10.2721 -0.0195312 10.5195 -0.0195312C11.4354 0.288506 11.8782 0.926527 11.8477 1.89453C12.1652 2.01556 12.4842 2.13275 12.8047 2.24609C13.0969 1.77457 13.442 1.33837 13.8398 0.9375C14.4433 0.427398 15.1334 0.108388 15.9102 -0.0195312C16.2747 -0.0195312 16.6393 -0.0195312 17.0039 -0.0195312C18.4849 0.23048 19.5461 1.03777 20.1875 2.40234C20.3168 2.75068 20.4144 3.10225 20.4805 3.45703C20.4805 3.80859 20.4805 4.16016 20.4805 4.51172C20.1311 6.3391 19.0504 7.4784 17.2383 7.92969C16.6613 8.02066 16.0884 8.00113 15.5195 7.87109C15.4935 7.8841 15.4675 7.89715 15.4414 7.91016C14.9152 9.38449 14.3814 10.8559 13.8398 12.3242C14.4146 12.6059 14.9029 12.9965 15.3047 13.4961C15.9532 13.0948 16.5913 12.6781 17.2188 12.2461C16.9955 11.4576 17.1973 10.8 17.8242 10.2734C18.4555 9.89891 19.0936 9.8859 19.7383 10.2344C20.1025 10.5001 20.3499 10.8452 20.4805 11.2695C20.4805 11.5169 20.4805 11.7643 20.4805 12.0117C20.1517 13.01 19.4616 13.4332 18.4102 13.2812C18.1176 13.1903 17.8506 13.0536 17.6094 12.8711C16.9784 13.2648 16.3534 13.6684 15.7344 14.082C15.8525 14.3845 15.9567 14.697 16.0469 15.0195C16.4011 16.8479 15.8217 18.2997 14.3086 19.375C13.7963 19.6823 13.2495 19.8842 12.668 19.9805C12.3164 19.9805 11.9648 19.9805 11.6133 19.9805C10.0136 19.6768 8.91336 18.7653 8.3125 17.2461C7.82863 17.3784 7.34035 17.4956 6.84766 17.5977C6.70398 18.8285 6.01387 19.3949 4.77734 19.2969C3.67334 18.9053 3.27621 18.1436 3.58594 17.0117C4.0343 16.1223 4.74395 15.8033 5.71484 16.0547C6.15918 16.2126 6.4782 16.5056 6.67188 16.9336C7.16746 16.7951 7.66875 16.6779 8.17578 16.582C8.01504 15.3132 8.35355 14.2 9.19141 13.2422C8.75344 12.7848 8.32375 12.3226 7.90234 11.8555C6.63402 12.7335 5.27984 12.8963 3.83984 12.3438C3.64948 12.692 3.45416 13.037 3.25391 13.3789C3.98217 14.1461 4.02774 14.9534 3.39062 15.8008C2.77866 16.3566 2.09506 16.4673 1.33984 16.1328C0.895734 15.8782 0.609275 15.5071 0.480469 15.0195C0.480469 14.7721 0.480469 14.5247 0.480469 14.2773C0.848764 13.2465 1.57793 12.8168 2.66797 12.9883C2.8453 12.6531 3.02759 12.3211 3.21484 11.9922C1.71587 10.8355 1.18853 9.33156 1.63281 7.48047C1.80547 6.92656 2.07891 6.43176 2.45312 5.99609C2.763 5.69883 3.082 5.41887 3.41016 5.15625C3.12903 4.5484 2.84257 3.94293 2.55078 3.33984C1.50375 3.43571 0.813646 2.993 0.480469 2.01172C0.480469 1.76432 0.480469 1.51693 0.480469 1.26953C0.688802 0.618488 1.11849 0.188802 1.76953 -0.0195312ZM12.8633 5.87891C12.9022 5.87555 12.9347 5.88859 12.9609 5.91797C13.3891 6.68469 13.9946 7.26414 14.7773 7.65625C14.2553 9.07906 13.741 10.5048 13.2344 11.9336C13.2156 12.0109 13.17 12.0629 13.0977 12.0898C11.859 11.8024 10.7327 12.0368 9.71875 12.793C9.29559 12.3177 8.87238 11.8425 8.44922 11.3672C9.43535 10.2153 9.7218 8.90672 9.30859 7.44141C10.4912 6.90852 11.6761 6.3877 12.8633 5.87891Z" fill="black"/>
<path fill-rule="evenodd" clip-rule="evenodd" d="M1.92566 0.644537C2.78574 0.625615 3.18287 1.04228 3.11706 1.89454C2.90786 2.47132 2.4977 2.71221 1.88659 2.61719C1.34238 2.40817 1.10149 2.01103 1.16394 1.42579C1.29485 1.04101 1.54876 0.780596 1.92566 0.644537Z" fill="#A8D1DF"/>
<path fill-rule="evenodd" clip-rule="evenodd" d="M9.93453 0.644588C10.5375 0.597405 10.9346 0.857823 11.1259 1.42584C11.1654 2.28479 10.7552 2.68192 9.89547 2.61724C9.23641 2.34658 9.02156 1.87133 9.25094 1.19146C9.41656 0.927877 9.64442 0.745584 9.93453 0.644588Z" fill="#A8D1DF"/>
<path fill-rule="evenodd" clip-rule="evenodd" d="M16.0666 0.644589C17.9726 0.597722 19.2031 1.48314 19.758 3.30084C19.9474 4.3465 19.7066 5.27748 19.0354 6.09381C19.0029 6.12068 18.9768 6.11416 18.9572 6.07428C18.7031 5.47514 18.2734 5.05197 17.6682 4.80475C18.2094 4.17322 18.281 3.48961 17.883 2.75396C17.3518 2.05956 16.6682 1.84471 15.8322 2.10943C14.8884 2.62387 14.6085 3.38559 14.9924 4.39459C15.0749 4.54217 15.1725 4.67889 15.2854 4.80475C14.694 5.09014 14.2513 5.52631 13.9572 6.11334C13.5947 5.72705 13.3538 5.27131 13.2346 4.74615C12.9699 3.33946 13.3931 2.18712 14.5041 1.28912C14.9797 0.9533 15.5006 0.738457 16.0666 0.644589Z" fill="#F0F1F9"/>
<path fill-rule="evenodd" clip-rule="evenodd" d="M16.2613 2.63677C16.8657 2.59018 17.2628 2.8506 17.4527 3.41802C17.4921 4.27697 17.082 4.67412 16.2222 4.60943C15.6598 4.41084 15.4189 4.01369 15.4996 3.41802C15.6304 3.03325 15.8844 2.77283 16.2613 2.63677Z" fill="#EA8A49"/>
<path fill-rule="evenodd" clip-rule="evenodd" d="M4.93292 5.33202C6.43695 5.18894 7.58929 5.74886 8.38996 7.01171C8.90886 8.03968 8.93492 9.08132 8.46808 10.1367C8.34066 10.3786 8.18441 10.6 7.99933 10.8008C7.71394 10.2094 7.27777 9.76671 6.69074 9.47265C7.22421 8.76394 7.25675 8.03476 6.78839 7.28515C6.11378 6.5796 5.35206 6.4689 4.50324 6.95312C3.66184 7.72226 3.58371 8.5621 4.26886 9.47265C3.65599 9.74046 3.2198 10.1832 2.96027 10.8008C2.24949 9.96308 2.0021 8.99952 2.21808 7.91015C2.62424 6.52081 3.52919 5.66144 4.93292 5.33202Z" fill="#F1F1F9"/>
<path fill-rule="evenodd" clip-rule="evenodd" d="M15.7936 5.33204C16.2495 5.32551 16.7052 5.33204 17.1608 5.35157C17.8243 5.54637 18.254 5.97606 18.4498 6.64063C17.1806 7.52055 15.8915 7.54657 14.5827 6.71876C14.54 6.63813 14.5335 6.55348 14.5631 6.46485C14.7962 5.88645 15.2063 5.50883 15.7936 5.33204Z" fill="#EB8B49"/>
<path fill-rule="evenodd" clip-rule="evenodd" d="M5.20766 7.32417C6.06938 7.28101 6.47953 7.68464 6.43813 8.53511C6.34047 8.94527 6.08657 9.19917 5.67641 9.29683C5.09364 9.36702 4.70953 9.12613 4.52407 8.57417C4.41614 7.96948 4.64399 7.55284 5.20766 7.32417Z" fill="#63BFE0"/>
<path fill-rule="evenodd" clip-rule="evenodd" d="M4.81641 9.98047C5.24629 9.97395 5.67598 9.98047 6.10547 10C6.8241 10.1847 7.26027 10.6339 7.41406 11.3477C6.56445 11.9382 5.63348 12.114 4.62109 11.875C4.30793 11.777 4.00845 11.6468 3.72266 11.4844C3.62249 11.4429 3.55738 11.3713 3.52734 11.2695C3.73614 10.618 4.16583 10.1883 4.81641 9.98047Z" fill="#63BFE0"/>
<path fill-rule="evenodd" clip-rule="evenodd" d="M18.6061 10.6445C19.2071 10.5966 19.6042 10.857 19.7975 11.4258C19.835 12.2867 19.4248 12.6838 18.567 12.6172C17.9902 12.4079 17.7494 11.9978 17.8444 11.3867C17.9659 10.9981 18.2198 10.7507 18.6061 10.6445Z" fill="#A8D1DF"/>
<path fill-rule="evenodd" clip-rule="evenodd" d="M11.7686 12.6367C13.6625 12.6029 14.88 13.4883 15.421 15.2929C15.5924 16.3456 15.3515 17.2896 14.6983 18.125C14.3927 17.5462 13.937 17.1034 13.3311 16.7968C13.8761 16.1688 13.9477 15.4852 13.546 14.746C13.0125 14.064 12.3289 13.8492 11.4952 14.1015C10.588 14.5942 10.295 15.3298 10.6163 16.3085C10.6964 16.4927 10.8071 16.6555 10.9483 16.7968C10.3579 17.0812 9.91524 17.5174 9.6202 18.1054C9.25766 17.7191 9.0168 17.2634 8.89754 16.7382C8.62047 14.968 9.27801 13.6855 10.8702 12.8906C11.1694 12.7866 11.4689 12.702 11.7686 12.6367Z" fill="#F0F1F9"/>
<path fill-rule="evenodd" clip-rule="evenodd" d="M1.88721 13.6523C2.76608 13.6132 3.17624 14.0298 3.11768 14.9023C2.90628 15.4475 2.50915 15.6884 1.92627 15.625C1.35229 15.4343 1.09839 15.0372 1.16456 14.4336C1.27988 14.0515 1.52077 13.7911 1.88721 13.6523Z" fill="#A8D1DF"/>
<path fill-rule="evenodd" clip-rule="evenodd" d="M11.8472 14.668C12.6063 14.5712 13.036 14.8967 13.1363 15.6446C13.0773 16.2635 12.7387 16.589 12.1206 16.6211C11.4054 16.5369 11.0865 16.1333 11.1636 15.4102C11.279 15.0541 11.5069 14.8067 11.8472 14.668Z" fill="#FCC854"/>
<path fill-rule="evenodd" clip-rule="evenodd" d="M4.89512 16.6601C5.75484 16.615 6.165 17.0186 6.12559 17.8711C5.96301 18.3851 5.61145 18.6455 5.0709 18.6523C4.39316 18.5083 4.09368 18.0917 4.17246 17.4023C4.29033 17.0306 4.53121 16.7832 4.89512 16.6601Z" fill="#A8D1E0"/>
<path fill-rule="evenodd" clip-rule="evenodd" d="M11.4575 17.3242C11.9134 17.3177 12.3692 17.3242 12.8247 17.3438C13.4967 17.5405 13.9264 17.9767 14.1138 18.6523C12.8601 19.4981 11.5841 19.5307 10.2857 18.75C10.2097 18.6659 10.1902 18.5682 10.2271 18.457C10.4588 17.88 10.8689 17.5024 11.4575 17.3242Z" fill="#FCC854"/>
</g>
<defs>
<clipPath id="clip0_440_7238">
<rect width="20" height="20" fill="white" transform="translate(0.5)"/>
</clipPath>
</defs>
</svg>
