<svg width="20" height="20" viewBox="0 0 20 20" fill="none" xmlns="http://www.w3.org/2000/svg">
<g clip-path="url(#clip0_440_7588)">
<path opacity="0.993" fill-rule="evenodd" clip-rule="evenodd" d="M19.9805 0.996094C19.9805 5.89191 19.9805 10.7878 19.9805 15.6836C19.8605 16.2204 19.535 16.572 19.0039 16.7383C19.015 17.053 18.8847 17.2809 18.6133 17.4219C16.7383 17.4414 14.8633 17.4479 12.9883 17.4414C12.9883 17.5586 12.9883 17.6758 12.9883 17.793C13.3531 17.7865 13.7177 17.793 14.082 17.8125C14.5316 17.9235 14.8116 18.2035 14.9219 18.6523C14.9479 18.9909 14.9479 19.3294 14.9219 19.668C14.8709 19.8032 14.7863 19.9073 14.668 19.9805C11.53 19.9805 8.39191 19.9805 5.25391 19.9805C5.01734 19.7727 4.92621 19.5058 4.98047 19.1797C4.91328 18.4924 5.19977 18.0366 5.83984 17.8125C6.20418 17.793 6.56879 17.7865 6.93359 17.793C6.93359 17.4544 6.93359 17.1159 6.93359 16.7773C5.96996 16.7839 5.00641 16.7773 4.04297 16.7578C3.92445 16.7113 3.85935 16.6266 3.84766 16.5039C3.8624 16.3864 3.91449 16.2887 4.00391 16.2109C6.1393 16.1914 8.27469 16.1849 10.4102 16.1914C10.4037 15.8916 10.4102 15.5921 10.4297 15.293C10.5877 14.9502 10.8546 14.807 11.2305 14.8633C11.2305 14.694 11.2305 14.5247 11.2305 14.3555C7.67578 14.3555 4.12109 14.3555 0.566406 14.3555C0.559902 14.7854 0.566414 15.215 0.585938 15.6445C0.682586 15.8974 0.858367 16.0732 1.11328 16.1719C1.58203 16.1849 2.05078 16.1979 2.51953 16.2109C2.61814 16.2845 2.67022 16.3821 2.67578 16.5039C2.6625 16.6279 2.5974 16.7125 2.48047 16.7578C1.94476 16.7932 1.41091 16.7802 0.878906 16.7188C0.434777 16.5522 0.135298 16.2462 -0.0195312 15.8008C-0.0195312 10.8659 -0.0195312 5.93098 -0.0195312 0.996094C0.129612 0.501938 0.455133 0.182926 0.957031 0.0390625C6.97266 0.0130208 12.9883 0.0130208 19.0039 0.0390625C19.5058 0.182926 19.8313 0.501938 19.9805 0.996094Z" fill="#020201"/>
<path fill-rule="evenodd" clip-rule="evenodd" d="M18.1836 0.605469C18.3113 0.76636 18.396 0.948653 18.4375 1.15234C18.457 1.89442 18.4636 2.63661 18.457 3.37891C12.5065 3.37891 6.55598 3.37891 0.605469 3.37891C0.605469 2.64974 0.605469 1.92057 0.605469 1.19141C0.670746 0.911196 0.840016 0.722395 1.11328 0.625001C6.80336 0.605469 12.4935 0.598958 18.1836 0.605469Z" fill="#ABABAB"/>
<path fill-rule="evenodd" clip-rule="evenodd" d="M18.1835 0.605464C18.4475 0.590722 18.7079 0.610253 18.9648 0.664058C19.1296 0.763745 19.2533 0.900464 19.3359 1.07421C19.3554 1.85535 19.3619 2.6366 19.3554 3.41796C13.0924 3.41796 6.82935 3.41796 0.56634 3.41796C0.553438 2.66898 0.566457 1.92679 0.605402 1.1914C0.605402 1.92057 0.605402 2.64973 0.605402 3.3789C6.55591 3.3789 12.5065 3.3789 18.457 3.3789C18.4635 2.6366 18.457 1.89441 18.4374 1.15234C18.3959 0.948647 18.3113 0.766354 18.1835 0.605464Z" fill="#9A9A9A"/>
<path fill-rule="evenodd" clip-rule="evenodd" d="M1.89469 1.15236C2.64989 1.10681 3.00796 1.45837 2.96891 2.20704C2.81079 2.69068 2.47876 2.90553 1.97282 2.85157C1.46609 2.69104 1.23822 2.34599 1.28922 1.81642C1.40389 1.51305 1.60572 1.2917 1.89469 1.15236Z" fill="#040404"/>
<path fill-rule="evenodd" clip-rule="evenodd" d="M4.08219 1.15232C4.81828 1.10081 5.17637 1.43935 5.15641 2.16794C5.00618 2.66284 4.67414 2.89071 4.16032 2.85154C3.65359 2.691 3.42572 2.34595 3.47672 1.81638C3.59139 1.51302 3.79322 1.29166 4.08219 1.15232Z" fill="#040403"/>
<path fill-rule="evenodd" clip-rule="evenodd" d="M6.26969 1.15232C7.00579 1.10081 7.36387 1.43935 7.34391 2.16794C7.19368 2.66284 6.86165 2.89071 6.34782 2.85154C5.8411 2.691 5.61321 2.34595 5.66423 1.81638C5.76563 1.50028 5.96743 1.27892 6.26969 1.15232Z" fill="#040404"/>
<path fill-rule="evenodd" clip-rule="evenodd" d="M2.01172 1.73827C2.31756 1.69901 2.44126 1.82922 2.38281 2.12889C2.19711 2.34181 2.02784 2.32879 1.875 2.08983C1.84896 2.02472 1.84896 1.95962 1.875 1.89452C1.92874 1.84744 1.97431 1.79536 2.01172 1.73827Z" fill="#F05E73"/>
<path fill-rule="evenodd" clip-rule="evenodd" d="M4.51172 1.81645C4.48844 1.96984 4.42332 2.10655 4.31641 2.22661C4.35344 2.24547 4.3925 2.25198 4.43359 2.24614C4.21609 2.31254 4.0859 2.2279 4.04297 1.99223C4.12734 1.73327 4.28359 1.67467 4.51172 1.81645Z" fill="#EFC964"/>
<path fill-rule="evenodd" clip-rule="evenodd" d="M6.65993 1.7774C6.66575 1.89878 6.64622 2.01597 6.60134 2.12896C6.56587 2.20469 6.50727 2.24375 6.42556 2.24615C6.18571 2.10672 6.1727 1.94396 6.38649 1.75787C6.48138 1.7304 6.57251 1.73691 6.65993 1.7774Z" fill="#7AD7D3"/>
<path fill-rule="evenodd" clip-rule="evenodd" d="M4.51172 1.81641C4.63324 1.98565 4.60719 2.12888 4.43359 2.24609C4.3925 2.25193 4.35344 2.24542 4.31641 2.22656C4.42332 2.10651 4.48844 1.96979 4.51172 1.81641Z" fill="#F6B114"/>
<path fill-rule="evenodd" clip-rule="evenodd" d="M6.66016 1.77734C6.83531 1.97 6.80926 2.13276 6.58203 2.26562C6.52086 2.29551 6.46879 2.289 6.42578 2.24609C6.5075 2.2437 6.56609 2.20463 6.60156 2.12891C6.64645 2.01591 6.66598 1.89873 6.66016 1.77734Z" fill="#119FA5"/>
<path fill-rule="evenodd" clip-rule="evenodd" d="M18.457 4.00391C18.457 5.50129 18.457 6.99871 18.457 8.49609C17.8449 8.48957 17.2329 8.49609 16.6211 8.51562C16.5148 8.56531 16.4627 8.64996 16.4648 8.76953C16.0482 8.76953 15.6315 8.76953 15.2148 8.76953C15.2018 8.76953 15.1888 8.76953 15.1758 8.76953C15.1963 8.64031 15.1443 8.5557 15.0195 8.51562C13.5839 8.47707 12.1516 8.49008 10.7227 8.55469C10.5741 8.63621 10.4765 8.75992 10.4297 8.92578C10.4036 9.48566 10.4036 10.0456 10.4297 10.6055C10.5753 10.9654 10.8422 11.1217 11.2305 11.0742C11.2305 11.2695 11.2305 11.4648 11.2305 11.6602C10.8952 11.6088 10.6413 11.726 10.4688 12.0117C10.4121 12.5948 10.3925 13.1808 10.4102 13.7695C7.12891 13.7695 3.84766 13.7695 0.566406 13.7695C0.566406 10.5143 0.566406 7.2591 0.566406 4.00391C6.52996 4.00391 12.4935 4.00391 18.457 4.00391Z" fill="#FDD66D"/>
<path fill-rule="evenodd" clip-rule="evenodd" d="M18.457 4.00391C18.7565 4.00391 19.056 4.00391 19.3555 4.00391C19.3555 7.2591 19.3555 10.5143 19.3555 13.7695C19.2253 13.7695 19.095 13.7695 18.9648 13.7695C18.9714 13.2095 18.9648 12.6496 18.9453 12.0898C18.8475 11.868 18.6847 11.7248 18.457 11.6602C18.457 11.4648 18.457 11.2695 18.457 11.0742C18.6847 11.0096 18.8475 10.8663 18.9453 10.6445C18.9518 10.3581 18.9583 10.0716 18.9648 9.78516C18.9696 9.4568 18.95 9.13129 18.9062 8.80859C18.8138 8.62238 18.6641 8.5182 18.457 8.49609C18.457 6.99871 18.457 5.50129 18.457 4.00391Z" fill="#FEB408"/>
<path fill-rule="evenodd" clip-rule="evenodd" d="M2.36328 4.9805C2.75223 4.97803 2.8629 5.14729 2.69531 5.48831C2.46036 5.71675 2.23249 5.95112 2.01172 6.19143C2.2728 6.45901 2.52671 6.73245 2.77344 7.01175C2.79214 7.22182 2.69448 7.35202 2.48047 7.40237C2.4243 7.39382 2.37221 7.37428 2.32422 7.34378C1.99219 7.01175 1.66016 6.67971 1.32812 6.34768C1.30464 6.28374 1.28511 6.21866 1.26953 6.15237C1.593 5.72467 1.95758 5.33405 2.36328 4.9805Z" fill="#0B0804"/>
<path fill-rule="evenodd" clip-rule="evenodd" d="M3.84766 4.9805C4.12961 4.94401 4.26633 5.0612 4.25781 5.33206C4.01043 5.97007 3.76302 6.60811 3.51563 7.24612C3.34315 7.45026 3.17388 7.45026 3.00781 7.24612C2.98177 7.14194 2.98177 7.0378 3.00781 6.93362C3.24219 6.33468 3.47656 5.73569 3.71094 5.13675C3.76467 5.08968 3.81025 5.0376 3.84766 4.9805Z" fill="#060502"/>
<path fill-rule="evenodd" clip-rule="evenodd" d="M4.55031 4.9805C4.66047 4.97066 4.76461 4.99019 4.86281 5.0391C5.19484 5.37113 5.52688 5.70316 5.85891 6.03519C5.88977 6.15761 5.87676 6.2748 5.81984 6.38675C5.51387 6.69273 5.20785 6.99874 4.90188 7.30472C4.74359 7.44077 4.59387 7.43429 4.45266 7.28519C4.40383 7.18452 4.39078 7.08038 4.41359 6.97269C4.67457 6.71824 4.92848 6.45781 5.17531 6.19144C4.94152 5.93808 4.70063 5.6907 4.45266 5.44925C4.35324 5.26265 4.38578 5.1064 4.55031 4.9805Z" fill="#060402"/>
<path fill-rule="evenodd" clip-rule="evenodd" d="M6.62104 5.83985C7.03792 5.83333 7.4546 5.83985 7.87104 5.85938C8.06386 6.01399 8.07687 6.18325 7.91011 6.36719C7.48327 6.42958 7.05358 6.44262 6.62104 6.40626C6.41538 6.21391 6.41538 6.02508 6.62104 5.83985Z" fill="#080603"/>
<path fill-rule="evenodd" clip-rule="evenodd" d="M8.73049 5.83985C10.879 5.83333 13.0274 5.83985 15.1758 5.85938C15.3928 6.07626 15.3668 6.25856 15.0977 6.40626C12.9883 6.43231 10.8789 6.43231 8.76956 6.40626C8.52807 6.22961 8.51506 6.04079 8.73049 5.83985Z" fill="#070502"/>
<path fill-rule="evenodd" clip-rule="evenodd" d="M6.62104 7.12891C7.40241 7.12239 8.18366 7.12891 8.96479 7.14844C9.12913 7.26836 9.16167 7.41809 9.06245 7.59766C9.01671 7.65208 8.95812 7.68465 8.88667 7.69532C8.13147 7.72137 7.37624 7.72137 6.62104 7.69532C6.41538 7.50297 6.41538 7.31415 6.62104 7.12891Z" fill="#080603"/>
<path fill-rule="evenodd" clip-rule="evenodd" d="M9.66799 7.1289C10.0458 7.12241 10.4234 7.1289 10.8008 7.14843C10.9936 7.30304 11.0066 7.47229 10.8399 7.65624C10.4652 7.71823 10.0876 7.73124 9.70706 7.6953C9.46557 7.51866 9.45256 7.32983 9.66799 7.1289Z" fill="#0A0804"/>
<path fill-rule="evenodd" clip-rule="evenodd" d="M11.4644 7.12891C12.389 7.12239 13.3134 7.12891 14.2378 7.14844C14.4617 7.36751 14.4357 7.54977 14.1597 7.69532C13.2743 7.72137 12.3889 7.72137 11.5034 7.69532C11.2626 7.52047 11.2496 7.33169 11.4644 7.12891Z" fill="#080703"/>
<path fill-rule="evenodd" clip-rule="evenodd" d="M1.62093 8.53516C2.36323 8.52864 3.10542 8.53516 3.84749 8.55469C4.05663 8.74782 4.04363 8.93012 3.80843 9.10157C3.09229 9.12762 2.37614 9.12762 1.65999 9.10157C1.45728 8.98778 1.41171 8.82501 1.52327 8.61329C1.56213 8.59118 1.59468 8.56512 1.62093 8.53516Z" fill="#090703"/>
<path fill-rule="evenodd" clip-rule="evenodd" d="M4.6678 8.53516C5.90483 8.52864 7.14182 8.53516 8.37874 8.55469C8.54307 8.67461 8.57561 8.82434 8.47639 9.00391C8.43065 9.05833 8.37206 9.0909 8.30061 9.10157C7.10268 9.12762 5.90479 9.12762 4.70686 9.10157C4.50417 8.98778 4.45858 8.82501 4.57014 8.61329C4.60901 8.59118 4.64155 8.56512 4.6678 8.53516Z" fill="#080603"/>
<path fill-rule="evenodd" clip-rule="evenodd" d="M15.2148 8.76953C15.6315 8.76953 16.0482 8.76953 16.4648 8.76953C16.4648 8.79559 16.4648 8.8216 16.4648 8.84766C16.0443 8.82246 15.6277 8.79641 15.2148 8.76953Z" fill="#369FD8"/>
<path fill-rule="evenodd" clip-rule="evenodd" d="M15.1758 8.76953C15.1888 8.76953 15.2018 8.76953 15.2148 8.76953C15.6277 8.79641 16.0443 8.82246 16.4648 8.84766C16.4982 8.96555 16.5763 9.03715 16.6992 9.0625C17.1417 9.08203 17.5845 9.08855 18.0273 9.08203C18.0273 9.53777 18.0273 9.99348 18.0273 10.4492C15.6966 10.4492 13.3659 10.4492 11.0352 10.4492C11.0352 9.99348 11.0352 9.53777 11.0352 9.08203C12.3439 9.095 13.646 9.08195 14.9414 9.04297C15.103 9.02449 15.1812 8.93332 15.1758 8.76953Z" fill="#0394FA"/>
<path fill-rule="evenodd" clip-rule="evenodd" d="M18.0273 9.08203C18.1445 9.08203 18.2617 9.08203 18.3789 9.08203C18.3789 9.53777 18.3789 9.99348 18.3789 10.4492C18.2617 10.4492 18.1445 10.4492 18.0273 10.4492C18.0273 9.99348 18.0273 9.53777 18.0273 9.08203Z" fill="#0076EE"/>
<path fill-rule="evenodd" clip-rule="evenodd" d="M11.6605 9.47266C12.1815 9.46614 12.7024 9.47266 13.223 9.49219C13.4402 9.54915 13.5118 9.68586 13.4379 9.90235C13.3923 9.94794 13.3467 9.99348 13.3012 10.0391C12.7543 10.0651 12.2074 10.0651 11.6605 10.0391C11.5155 9.9409 11.47 9.80419 11.5238 9.62891C11.5776 9.58184 11.6231 9.52977 11.6605 9.47266Z" fill="#000205"/>
<path fill-rule="evenodd" clip-rule="evenodd" d="M14.0825 9.4727C14.3205 9.45859 14.5549 9.47813 14.7856 9.53129C14.9493 9.71402 14.9363 9.88328 14.7466 10.0391C14.5122 10.0652 14.2778 10.0652 14.0434 10.0391C13.8287 9.83141 13.8417 9.64262 14.0825 9.4727Z" fill="#010307"/>
<path fill-rule="evenodd" clip-rule="evenodd" d="M15.5271 9.47266C16.2564 9.46614 16.9856 9.47266 17.7146 9.49219C17.9685 9.67465 17.9685 9.85696 17.7146 10.0391C16.9724 10.0651 16.2302 10.0651 15.4881 10.0391C15.269 9.82977 15.282 9.64098 15.5271 9.47266Z" fill="#010305"/>
<path fill-rule="evenodd" clip-rule="evenodd" d="M1.66054 9.74609C2.01531 9.72992 2.36687 9.74945 2.71523 9.80469C2.91327 9.96719 2.91327 10.1364 2.71523 10.3125C2.35064 10.3386 1.98606 10.3386 1.62148 10.3125C1.4765 10.2143 1.43092 10.0776 1.48476 9.90234C1.53932 9.84102 1.59791 9.78891 1.66054 9.74609Z" fill="#090703"/>
<path fill-rule="evenodd" clip-rule="evenodd" d="M3.57415 9.7461C4.43364 9.73958 5.29301 9.7461 6.15227 9.76563C6.39118 9.85629 6.44977 10.0191 6.32805 10.2539C6.29876 10.2784 6.26618 10.2979 6.2304 10.3125C5.30591 10.3386 4.38145 10.3386 3.45696 10.3125C3.34392 10.1989 3.31137 10.0622 3.3593 9.90235C3.41789 9.82544 3.4895 9.77336 3.57415 9.7461Z" fill="#080603"/>
<path fill-rule="evenodd" clip-rule="evenodd" d="M7.0894 9.74607C7.34037 9.73161 7.58776 9.75114 7.83158 9.80466C8.03944 9.97204 8.03944 10.1413 7.83158 10.3125C7.57116 10.3385 7.31076 10.3385 7.05033 10.3125C6.83815 10.1078 6.85116 9.91903 7.0894 9.74607Z" fill="#0B0904"/>
<path fill-rule="evenodd" clip-rule="evenodd" d="M8.53471 9.74608C8.89951 9.7396 9.26412 9.74608 9.62846 9.76561C9.90444 9.91116 9.93049 10.0934 9.70658 10.3125C9.30295 10.3385 8.89928 10.3385 8.49565 10.3125C8.28346 10.1078 8.29647 9.91905 8.53471 9.74608Z" fill="#090703"/>
<path fill-rule="evenodd" clip-rule="evenodd" d="M14.9414 9.04297C13.646 9.08195 12.3439 9.095 11.0352 9.08203C11.0352 9.53777 11.0352 9.99348 11.0352 10.4492C13.3659 10.4492 15.6966 10.4492 18.0273 10.4492C18.1445 10.4492 18.2617 10.4492 18.3789 10.4492C15.9246 10.4882 13.4636 10.5013 10.9961 10.4883C10.9961 10.0065 10.9961 9.52473 10.9961 9.04297C12.3112 9.04297 13.6263 9.04297 14.9414 9.04297Z" fill="#01528C"/>
<path fill-rule="evenodd" clip-rule="evenodd" d="M1.62093 10.9961C2.20701 10.9896 2.79295 10.9961 3.37874 11.0156C3.52035 11.1018 3.56593 11.2255 3.51546 11.3867C3.47213 11.4772 3.40051 11.5357 3.30062 11.5625C2.75374 11.5886 2.20687 11.5886 1.65999 11.5625C1.45728 11.4487 1.41171 11.2859 1.52327 11.0742C1.56213 11.0521 1.59468 11.0261 1.62093 10.9961Z" fill="#090704"/>
<path fill-rule="evenodd" clip-rule="evenodd" d="M4.00346 10.9961C4.74576 10.9896 5.48795 10.9961 6.23002 11.0156C6.28592 11.0338 6.33147 11.0664 6.36674 11.1133C6.44455 11.3413 6.37291 11.4911 6.1519 11.5625C5.46178 11.5886 4.7717 11.5886 4.08158 11.5625C3.80626 11.4057 3.78021 11.217 4.00346 10.9961Z" fill="#090704"/>
<path fill-rule="evenodd" clip-rule="evenodd" d="M6.97232 10.9961C7.92295 10.9896 8.87345 10.9961 9.82388 11.0156C10.0478 11.2347 10.0217 11.417 9.74576 11.5625C8.84732 11.5886 7.94888 11.5886 7.05045 11.5625C6.86591 11.4674 6.80732 11.3176 6.87466 11.1133C6.91549 11.0792 6.94802 11.0401 6.97232 10.9961Z" fill="#090703"/>
<path fill-rule="evenodd" clip-rule="evenodd" d="M11.8164 11.0742C13.7305 11.0742 15.6445 11.0742 17.5586 11.0742C17.5586 11.2695 17.5586 11.4648 17.5586 11.6602C15.6445 11.6602 13.7305 11.6602 11.8164 11.6602C11.8164 11.4648 11.8164 11.2695 11.8164 11.0742Z" fill="#60DBFC"/>
<path fill-rule="evenodd" clip-rule="evenodd" d="M18.457 11.0742C18.457 11.2695 18.457 11.4648 18.457 11.6602C18.3529 11.6602 18.2487 11.6602 18.1445 11.6602C18.1445 11.4648 18.1445 11.2695 18.1445 11.0742C18.2487 11.0742 18.3529 11.0742 18.457 11.0742Z" fill="#F8D169"/>
<path fill-rule="evenodd" clip-rule="evenodd" d="M18.3788 12.2851C18.2616 12.2851 18.1444 12.2851 18.0272 12.2851C15.6965 12.2851 13.3658 12.2851 11.035 12.2851C11.035 12.7409 11.035 13.1966 11.035 13.6523C10.9962 13.1905 10.9832 12.7218 10.996 12.2461C13.4635 12.2331 15.9245 12.2461 18.3788 12.2851Z" fill="#025EA0"/>
<path fill-rule="evenodd" clip-rule="evenodd" d="M18.0273 12.2852C18.0273 12.7409 18.0273 13.1966 18.0273 13.6523C15.6966 13.6523 13.3659 13.6523 11.0352 13.6523C11.0352 13.1966 11.0352 12.7409 11.0352 12.2852C13.3659 12.2852 15.6966 12.2852 18.0273 12.2852Z" fill="#0394FB"/>
<path fill-rule="evenodd" clip-rule="evenodd" d="M18.0273 12.2852C18.1445 12.2852 18.2617 12.2852 18.3789 12.2852C18.3789 12.7409 18.3789 13.1966 18.3789 13.6523C18.2617 13.6523 18.1445 13.6523 18.0273 13.6523C18.0273 13.1966 18.0273 12.7409 18.0273 12.2852Z" fill="#0076EE"/>
<path fill-rule="evenodd" clip-rule="evenodd" d="M11.6601 12.6758C12.2071 12.6693 12.754 12.6758 13.3007 12.6953C13.4457 12.797 13.4913 12.9337 13.4375 13.1055C13.3859 13.1831 13.3143 13.2287 13.2226 13.2422C12.7018 13.2682 12.1809 13.2682 11.6601 13.2422C11.4544 13.0498 11.4544 12.861 11.6601 12.6758Z" fill="#010305"/>
<path fill-rule="evenodd" clip-rule="evenodd" d="M14.0432 12.6758C14.2779 12.6693 14.5123 12.6758 14.7463 12.6953C14.8913 12.7952 14.9368 12.9319 14.883 13.1055C14.8315 13.1831 14.7599 13.2287 14.6682 13.2422C14.4423 13.2774 14.221 13.2644 14.0041 13.2031C13.8394 13.013 13.8524 12.8372 14.0432 12.6758Z" fill="#010408"/>
<path fill-rule="evenodd" clip-rule="evenodd" d="M15.4887 12.6758C16.231 12.6693 16.9732 12.6758 17.7153 12.6953C17.9751 12.8757 17.9751 13.0579 17.7153 13.2422C16.9861 13.2682 16.2569 13.2682 15.5278 13.2422C15.291 13.0678 15.278 12.879 15.4887 12.6758Z" fill="#010306"/>
<path fill-rule="evenodd" clip-rule="evenodd" d="M11.8164 14.2383C13.7305 14.2383 15.6445 14.2383 17.5586 14.2383C17.5586 14.4466 17.5586 14.655 17.5586 14.8633C15.6445 14.8633 13.7305 14.8633 11.8164 14.8633C11.8164 14.655 11.8164 14.4466 11.8164 14.2383Z" fill="#5ED7F7"/>
<path fill-rule="evenodd" clip-rule="evenodd" d="M3.84814 16.5039C3.45752 16.5039 3.06689 16.5039 2.67627 16.5039C2.67071 16.3821 2.61862 16.2845 2.52002 16.2109C2.05127 16.1979 1.58252 16.1849 1.11377 16.1719C0.858852 16.0732 0.68307 15.8974 0.586422 15.6445C0.566898 15.215 0.560387 14.7854 0.566891 14.3555C4.12158 14.3555 7.67627 14.3555 11.231 14.3555C11.231 14.5247 11.231 14.694 11.231 14.8633C10.8551 14.807 10.5882 14.9502 10.4302 15.293C10.4106 15.5921 10.4042 15.8916 10.4106 16.1914C8.27517 16.1849 6.13978 16.1914 4.00439 16.2109C3.91498 16.2888 3.86288 16.3864 3.84814 16.5039Z" fill="#818181"/>
<path fill-rule="evenodd" clip-rule="evenodd" d="M18.457 14.3555C18.457 14.5247 18.457 14.694 18.457 14.8633C18.3529 14.8633 18.2487 14.8633 18.1445 14.8633C18.1445 14.694 18.1445 14.5247 18.1445 14.3555C18.2487 14.3555 18.3529 14.3555 18.457 14.3555Z" fill="#7F7F7F"/>
<path fill-rule="evenodd" clip-rule="evenodd" d="M18.457 14.3555C18.7565 14.3555 19.056 14.3555 19.3555 14.3555C19.362 14.7984 19.3555 15.2411 19.3359 15.6836C19.2704 15.8548 19.1597 15.985 19.0039 16.0742C18.9804 15.7727 18.9479 15.4732 18.9062 15.1758C18.8015 15.0093 18.6518 14.9051 18.457 14.8633C18.457 14.694 18.457 14.5247 18.457 14.3555Z" fill="#595959"/>
<path fill-rule="evenodd" clip-rule="evenodd" d="M11.0352 15.4492C13.3659 15.4492 15.6966 15.4492 18.0273 15.4492C18.0273 15.918 18.0273 16.3867 18.0273 16.8555C18.0143 16.8555 18.0013 16.8555 17.9883 16.8555C15.6772 16.8164 13.3595 16.8034 11.0352 16.8164C11.0352 16.3607 11.0352 15.905 11.0352 15.4492Z" fill="#0291F5"/>
<path fill-rule="evenodd" clip-rule="evenodd" d="M18.0273 15.4492C18.1445 15.4492 18.2617 15.4492 18.3789 15.4492C18.3789 15.918 18.3789 16.3867 18.3789 16.8555C18.2617 16.8555 18.1445 16.8555 18.0273 16.8555C18.0273 16.3867 18.0273 15.918 18.0273 15.4492Z" fill="#0076ED"/>
<path fill-rule="evenodd" clip-rule="evenodd" d="M11.6209 15.8789C12.1809 15.8724 12.7408 15.8789 13.3006 15.8984C13.4421 15.9829 13.4877 16.1066 13.4373 16.2695C13.4177 16.3411 13.3722 16.3867 13.3006 16.4063C12.7407 16.4323 12.1808 16.4323 11.6209 16.4063C11.4662 16.2305 11.4662 16.0547 11.6209 15.8789Z" fill="#000001"/>
<path fill-rule="evenodd" clip-rule="evenodd" d="M14.0429 15.8789C14.2907 15.8724 14.5381 15.8789 14.7851 15.8984C14.9174 16.0302 14.9369 16.1799 14.8437 16.3476C14.8144 16.3721 14.7819 16.3916 14.7461 16.4062C14.5117 16.4323 14.2773 16.4323 14.0429 16.4062C13.8372 16.2287 13.8372 16.0529 14.0429 15.8789Z" fill="#000203"/>
<path fill-rule="evenodd" clip-rule="evenodd" d="M15.4886 15.8789C16.244 15.8724 16.9992 15.8789 17.7543 15.8984C17.9626 16.0677 17.9626 16.237 17.7543 16.4063C16.9991 16.4323 16.2438 16.4323 15.4886 16.4063C15.2824 16.2306 15.2824 16.0548 15.4886 15.8789Z" fill="#000102"/>
<path fill-rule="evenodd" clip-rule="evenodd" d="M12.3633 17.4414C12.3633 17.5586 12.3633 17.6758 12.3633 17.793C10.7617 17.793 9.16016 17.793 7.55859 17.793C7.55859 17.4544 7.55859 17.1159 7.55859 16.7773C8.5091 16.7773 9.45965 16.7773 10.4102 16.7773C10.4037 17.0902 10.547 17.3051 10.8398 17.4219C11.3475 17.4414 11.8553 17.4479 12.3633 17.4414Z" fill="#595959"/>
<path fill-rule="evenodd" clip-rule="evenodd" d="M11.035 15.4492C11.035 15.905 11.035 16.3607 11.035 16.8164C13.3593 16.8034 15.6771 16.8164 17.9882 16.8555C15.6574 16.8555 13.3267 16.8555 10.996 16.8555C10.9832 16.3798 10.9962 15.911 11.035 15.4492Z" fill="#0288E4"/>
<path fill-rule="evenodd" clip-rule="evenodd" d="M12.3633 17.4414C12.4015 17.5635 12.4146 17.6937 12.4023 17.832C10.7811 17.845 9.16652 17.832 7.55859 17.793C9.16016 17.793 10.7617 17.793 12.3633 17.793C12.3633 17.6758 12.3633 17.5586 12.3633 17.4414Z" fill="#252525"/>
<path fill-rule="evenodd" clip-rule="evenodd" d="M5.9575 18.418C8.50961 18.4115 11.0617 18.418 13.6138 18.4375C13.6513 18.4929 13.6838 18.5515 13.7114 18.6133C13.7309 18.8734 13.7374 19.1338 13.7309 19.3945C11.0226 19.3945 8.31426 19.3945 5.60594 19.3945C5.59946 19.1598 5.60598 18.9254 5.62547 18.6914C5.69598 18.5491 5.80664 18.458 5.9575 18.418Z" fill="#828282"/>
<path fill-rule="evenodd" clip-rule="evenodd" d="M5.95703 18.418C8.61973 18.3725 11.289 18.366 13.9648 18.3985C14.1437 18.4666 14.2609 18.5903 14.3164 18.7696C14.3164 18.9779 14.3164 19.1863 14.3164 19.3946C14.1211 19.3946 13.9258 19.3946 13.7305 19.3946C13.737 19.1338 13.7305 18.8734 13.7109 18.6133C13.6833 18.5516 13.6508 18.493 13.6133 18.4375C11.0612 18.418 8.50914 18.4115 5.95703 18.418Z" fill="#575757"/>
<path fill-rule="evenodd" clip-rule="evenodd" d="M14.3164 18.7695C14.355 18.9834 14.368 19.2048 14.3555 19.4336C11.4322 19.4466 8.51555 19.4336 5.60547 19.3945C8.31379 19.3945 11.0221 19.3945 13.7305 19.3945C13.9258 19.3945 14.1211 19.3945 14.3164 19.3945C14.3164 19.1862 14.3164 18.9779 14.3164 18.7695Z" fill="#3B3B3B"/>
</g>
<defs>
<clipPath id="clip0_440_7588">
<rect width="20" height="20" fill="white"/>
</clipPath>
</defs>
</svg>
