<svg width="21" height="20" viewBox="0 0 21 20" fill="none" xmlns="http://www.w3.org/2000/svg">
<g clip-path="url(#clip0_440_7340)">
<path opacity="0.992" fill-rule="evenodd" clip-rule="evenodd" d="M7.52712 0C9.28387 0 11.0406 0 12.7974 0C13.2513 0.138918 13.5441 0.410508 13.6758 0.81477C13.6983 1.31898 13.7058 1.82337 13.6983 2.32791C15.2337 2.30905 16.7653 2.32845 18.2929 2.38611C18.3304 2.41844 18.368 2.45078 18.4055 2.48311C18.4355 3.466 18.4355 4.44892 18.4055 5.4318C18.3593 5.55568 18.2617 5.6074 18.1127 5.58699C17.9647 5.59596 17.8521 5.5442 17.7749 5.4318C17.7523 4.60419 17.7448 3.77649 17.7523 2.94869C12.6999 2.90991 7.63977 2.89698 2.57216 2.90989C2.55717 8.37405 2.57218 13.8317 2.61721 19.2829C2.84243 19.2829 3.06766 19.2829 3.29288 19.2829C3.28537 16.4506 3.29288 13.6183 3.3154 10.786C3.38616 10.692 3.48376 10.6403 3.6082 10.6308C3.74979 10.6554 3.8624 10.72 3.94604 10.8248C3.96856 13.6441 3.97607 16.4635 3.96856 19.2829C5.92049 19.2829 7.87248 19.2829 9.82441 19.2829C9.82441 14.6659 9.82441 10.0488 9.82441 5.4318C7.87248 5.4318 5.92049 5.4318 3.96856 5.4318C3.97607 6.82862 3.96856 8.22537 3.94604 9.62204C3.90536 9.77844 3.79275 9.85604 3.6082 9.85484C3.48267 9.84397 3.38507 9.79225 3.3154 9.69964C3.28537 7.69504 3.28537 5.69047 3.3154 3.68586C3.35294 3.62767 3.40549 3.5824 3.47306 3.55007C7.88743 3.53067 12.3018 3.5242 16.7163 3.53067C16.878 3.53238 16.9906 3.59705 17.0541 3.72466C17.0767 8.91071 17.0842 14.0968 17.0767 19.2829C17.3019 19.2829 17.5271 19.2829 17.7523 19.2829C17.7448 15.028 17.7523 10.773 17.7749 6.51816C17.8521 6.40576 17.9647 6.354 18.1127 6.36296C18.2506 6.36079 18.3482 6.41255 18.4055 6.51816C18.4355 10.9153 18.4355 15.3125 18.4055 19.7097C18.3744 19.7814 18.3219 19.8332 18.2478 19.8649C12.8574 19.8649 7.46707 19.8649 2.07667 19.8649C2.00263 19.8332 1.95008 19.7814 1.91901 19.7097C1.88898 13.9804 1.88898 8.25117 1.91901 2.52191C1.95654 2.43784 2.02411 2.37964 2.12171 2.34731C3.62314 2.32791 5.12464 2.32145 6.62621 2.32791C6.61869 1.82337 6.62621 1.31898 6.64874 0.81477C6.78162 0.409523 7.07441 0.137934 7.52712 0Z" fill="#020202"/>
<path fill-rule="evenodd" clip-rule="evenodd" d="M11.9644 1.19373C12.028 1.30624 12.0805 1.42635 12.122 1.55409C12.1445 2.10944 12.1521 2.665 12.1445 3.22076C10.4779 3.22076 8.8112 3.22076 7.14453 3.22076C7.14453 2.69523 7.14453 2.16971 7.14453 1.64418C7.17408 1.42855 7.29417 1.28591 7.50489 1.21625C8.99129 1.19373 10.4778 1.18623 11.9644 1.19373Z" fill="#FAEC55"/>
<path fill-rule="evenodd" clip-rule="evenodd" d="M11.9648 1.19366C12.2546 1.14173 12.5023 1.2168 12.7081 1.41889C12.7437 1.47497 12.7662 1.53503 12.7757 1.59907C12.7757 2.13961 12.7757 2.68015 12.7757 3.22069C12.5654 3.22069 12.3552 3.22069 12.145 3.22069C12.1525 2.66493 12.145 2.10937 12.1225 1.55402C12.081 1.42628 12.0284 1.30617 11.9648 1.19366Z" fill="#F1D702"/>
<path fill-rule="evenodd" clip-rule="evenodd" d="M12.7749 1.59912C12.8197 2.14666 12.8348 2.70222 12.82 3.26579C10.9131 3.26579 9.00614 3.26579 7.09925 3.26579C7.08447 2.71722 7.09947 2.17668 7.14429 1.64417C7.14429 2.16969 7.14429 2.69522 7.14429 3.22074C8.81096 3.22074 10.4776 3.22074 12.1443 3.22074C12.3545 3.22074 12.5647 3.22074 12.7749 3.22074C12.7749 2.6802 12.7749 2.13966 12.7749 1.59912Z" fill="#9C922D"/>
<path fill-rule="evenodd" clip-rule="evenodd" d="M10.6585 1.86939C11.0042 1.86189 11.3496 1.8694 11.6946 1.89191C11.9037 1.98526 11.9713 2.14292 11.8973 2.36488C11.8747 2.44746 11.8222 2.50002 11.7396 2.52254C11.3642 2.55257 10.9888 2.55257 10.6135 2.52254C10.3647 2.28729 10.3797 2.06957 10.6585 1.86939Z" fill="#0B0903"/>
<path fill-rule="evenodd" clip-rule="evenodd" d="M8.22596 1.86938C8.55664 1.86189 8.88696 1.8694 9.21696 1.89191C9.53844 2.05822 9.56849 2.26843 9.30705 2.52254C8.93169 2.55257 8.55628 2.55257 8.18092 2.52254C8.01371 2.40934 7.96119 2.25168 8.02326 2.04956C8.08619 1.97883 8.15376 1.91877 8.22596 1.86938Z" fill="#0B0903"/>
<path fill-rule="evenodd" clip-rule="evenodd" d="M17.5491 3.93199C17.2037 3.93199 16.8584 3.93199 16.513 3.93199C11.8134 3.93199 7.11363 3.93199 2.41395 3.93199C2.41395 9.07776 2.41395 14.2236 2.41395 19.3693C2.36892 14.2175 2.35391 9.05946 2.3689 3.89532C7.43651 3.88312 12.4966 3.89534 17.5491 3.93199Z" fill="#564E56"/>
<path fill-rule="evenodd" clip-rule="evenodd" d="M16.5132 3.94141C16.5132 4.12464 16.5132 4.30787 16.5132 4.49109C12.0987 4.48499 7.68429 4.49109 3.26992 4.50942C3.20235 4.53995 3.1498 4.58271 3.11226 4.63768C3.08223 6.53106 3.08223 8.42441 3.11226 10.3178C3.18193 10.4053 3.27953 10.4541 3.40505 10.4644C3.40505 10.7087 3.40505 10.953 3.40505 11.1973C3.28061 11.2062 3.18301 11.2551 3.11226 11.3439C3.08974 14.019 3.08223 16.6941 3.08974 19.3693C2.86451 19.3693 2.63929 19.3693 2.41406 19.3693C2.41406 14.2267 2.41406 9.08404 2.41406 3.94141C7.11375 3.94141 11.8135 3.94141 16.5132 3.94141Z" fill="#8C7E8C"/>
<path fill-rule="evenodd" clip-rule="evenodd" d="M16.5137 3.94141C16.859 3.94141 17.2043 3.94141 17.5497 3.94141C17.5422 4.70273 17.5497 5.46396 17.5722 6.22512C17.6495 6.32849 17.7621 6.37609 17.9101 6.36785C17.9101 6.60575 17.9101 6.84361 17.9101 7.08151C17.7621 7.07326 17.6495 7.12086 17.5722 7.22424C17.5497 11.1374 17.5422 15.0507 17.5497 18.9639C17.3245 18.9639 17.0993 18.9639 16.874 18.9639C16.8816 14.1943 16.874 9.42466 16.8515 4.65507C16.788 4.5377 16.6754 4.47822 16.5137 4.47665C16.5137 4.29824 16.5137 4.11982 16.5137 3.94141Z" fill="#766C77"/>
<path fill-rule="evenodd" clip-rule="evenodd" d="M3.76562 5.29285C7.90977 5.29285 12.0539 5.29285 16.1981 5.29285C16.1981 5.57812 16.1981 5.86343 16.1981 6.1487C12.0539 6.1487 7.90977 6.1487 3.76562 6.1487C3.76562 5.86343 3.76562 5.57812 3.76562 5.29285Z" fill="#96E3F8"/>
<path fill-rule="evenodd" clip-rule="evenodd" d="M3.40625 11.381C3.40625 11.1542 3.40625 10.9276 3.40625 10.7009C3.78539 10.7019 4.01673 10.6339 4.10029 10.4968C4.14656 9.27274 4.16198 8.04857 4.14656 6.82434C8.15651 6.82434 12.1666 6.82434 16.1765 6.82434C16.1765 10.8709 16.1765 14.9174 16.1765 18.964C12.1666 18.964 8.15651 18.964 4.14656 18.964C4.16198 16.493 4.14656 14.022 4.10029 11.551C3.92847 11.4592 3.69713 11.4025 3.40625 11.381Z" fill="#D9F2F7"/>
<path fill-rule="evenodd" clip-rule="evenodd" d="M10.2969 6.86938C12.2488 6.86938 14.2008 6.86938 16.1527 6.86938C16.1527 10.9009 16.1527 14.9324 16.1527 18.964C14.2008 18.964 12.2488 18.964 10.2969 18.964C10.2969 14.9324 10.2969 10.9009 10.2969 6.86938Z" fill="#D9F2F7"/>
<path fill-rule="evenodd" clip-rule="evenodd" d="M10.2969 6.85824C12.2562 6.82313 14.2231 6.81143 16.1978 6.82309C16.2128 11.0111 16.1978 15.1932 16.1527 19.3694C16.1527 15.199 16.1527 11.0286 16.1527 6.85824C14.2008 6.85824 12.2488 6.85824 10.2969 6.85824Z" fill="#7C8A8C"/>
<path opacity="0.941" fill-rule="evenodd" clip-rule="evenodd" d="M19.5622 11.8919C19.6581 11.8909 19.7324 11.93 19.7852 12.0092C20.012 12.3847 20.2389 12.7602 20.4658 13.1357C20.5198 13.2422 20.5081 13.34 20.4305 13.429C19.9001 13.4674 19.3682 13.4752 18.8347 13.4525C18.7239 13.3953 18.6887 13.3054 18.7291 13.1826C18.956 12.7993 19.1828 12.416 19.4097 12.0327C19.4434 11.9636 19.4942 11.9167 19.5622 11.8919Z" fill="black"/>
<path fill-rule="evenodd" clip-rule="evenodd" d="M19.9834 13.0654C19.7295 13.0887 19.4713 13.0965 19.209 13.0888C19.3329 12.8712 19.4659 12.66 19.6079 12.4552C19.7448 12.6505 19.87 12.8539 19.9834 13.0654Z" fill="#F6616C"/>
<path fill-rule="evenodd" clip-rule="evenodd" d="M19.9834 13.0653C19.9962 13.0667 20.004 13.0745 20.0069 13.0888C19.7372 13.1198 19.4712 13.1198 19.209 13.0888C19.4713 13.0965 19.7295 13.0887 19.9834 13.0653Z" fill="#431A1E"/>
<path opacity="0.941" fill-rule="evenodd" clip-rule="evenodd" d="M18.8343 14.1213C19.3506 14.1174 19.8669 14.1213 20.3832 14.1331C20.5031 14.2121 20.5304 14.3177 20.4653 14.4499C20.2235 14.852 19.9771 15.2509 19.7261 15.6468C19.6301 15.7098 19.5402 15.702 19.4562 15.6233C19.2137 15.2165 18.9712 14.8097 18.7287 14.403C18.689 14.277 18.7242 14.1831 18.8343 14.1213Z" fill="black"/>
<path fill-rule="evenodd" clip-rule="evenodd" d="M19.209 14.4968C19.4712 14.4657 19.7372 14.4657 20.0069 14.4968C20.004 14.5111 19.9962 14.5189 19.9834 14.5203C19.7295 14.4969 19.4713 14.4891 19.209 14.4968Z" fill="#441A1E"/>
<path fill-rule="evenodd" clip-rule="evenodd" d="M19.209 14.4969C19.4713 14.4892 19.7295 14.497 19.9834 14.5204C19.87 14.7318 19.7448 14.9352 19.6079 15.1305C19.4659 14.9257 19.3329 14.7145 19.209 14.4969Z" fill="#F5606C"/>
<g clip-path="url(#clip1_440_7340)">
<path opacity="0.969" fill-rule="evenodd" clip-rule="evenodd" d="M6.52831 8.15285C6.51505 8.22831 6.47142 8.28286 6.3974 8.31649C6.06285 8.32377 5.72829 8.33104 5.39374 8.33831C5.36252 8.34846 5.33707 8.36665 5.31737 8.39286C5.28495 9.12553 5.27404 9.86009 5.28465 10.5965C5.28104 10.6841 5.28467 10.7714 5.29556 10.8584C5.30571 10.8896 5.32389 10.915 5.3501 10.9347C5.6608 10.9631 5.97354 10.9777 6.28831 10.9784C6.4371 11.1492 6.57892 11.3274 6.71377 11.5129C6.8473 11.3285 6.98912 11.1503 7.13924 10.9784C7.45401 10.9777 7.76674 10.9631 8.07744 10.9347C8.11124 10.9082 8.13668 10.8755 8.15381 10.8366C8.16836 10.0438 8.16836 9.25106 8.15381 8.45831C8.12834 8.40377 8.08835 8.36377 8.0338 8.33831C7.95412 8.32743 7.87413 8.3238 7.7938 8.3274C7.53915 8.33104 7.28459 8.3274 7.03014 8.31649C6.95838 8.28572 6.92201 8.23118 6.92105 8.15285C6.91983 8.08607 6.94893 8.0388 7.00832 8.01103C7.37924 7.99649 7.75016 7.99649 8.12108 8.01103C8.29927 8.07285 8.41927 8.19285 8.48109 8.37104C8.49564 9.22197 8.49564 10.0729 8.48109 10.9238C8.41927 11.102 8.29927 11.222 8.12108 11.2838C7.84442 11.2875 7.56806 11.2984 7.29197 11.3166C7.13614 11.527 6.97614 11.7342 6.81196 11.9384C6.73026 11.9587 6.6539 11.9478 6.58286 11.9057C6.44174 11.6998 6.29264 11.4998 6.13558 11.3057C5.86648 11.2984 5.59738 11.2911 5.32828 11.2838C5.11916 11.2274 4.99189 11.0929 4.94646 10.8802C4.93191 10.0583 4.93191 9.23652 4.94646 8.41468C4.98978 8.21137 5.10978 8.07682 5.30647 8.01103C5.68466 7.99649 6.06285 7.99649 6.44104 8.01103C6.48977 8.04677 6.51886 8.09404 6.52831 8.15285Z" fill="#020202"/>
<path opacity="0.975" fill-rule="evenodd" clip-rule="evenodd" d="M12.5949 8.15285C12.5856 8.2324 12.542 8.28695 12.464 8.31649C11.7439 8.32377 11.0239 8.33104 10.3039 8.33831C10.2804 8.35917 10.2549 8.37735 10.2275 8.39286C10.1951 9.12553 10.1842 9.86009 10.1948 10.5965C10.1912 10.6841 10.1948 10.7714 10.2057 10.8584C10.2312 10.8984 10.2639 10.9311 10.3039 10.9566C10.6748 10.9638 11.0457 10.9711 11.4167 10.9784C11.463 11.0029 11.503 11.0356 11.5367 11.0766C11.6374 11.2282 11.7464 11.3736 11.8639 11.5129C11.9981 11.3279 12.1399 11.1497 12.2894 10.9784C13.2785 10.9711 14.2676 10.9638 15.2567 10.9566C15.3186 10.9384 15.3586 10.8984 15.3767 10.8366C15.3913 10.0365 15.3913 9.23652 15.3767 8.4365C15.35 8.38793 15.31 8.3552 15.2567 8.33831C15.1771 8.32743 15.0971 8.3238 15.0167 8.3274C14.3767 8.33104 13.7367 8.3274 13.0967 8.31649C13.0767 8.30833 13.0585 8.29742 13.0421 8.28377C13.0237 8.23769 13.0055 8.19406 12.9876 8.15285C12.9929 8.09258 13.022 8.0453 13.0749 8.01103C13.8385 7.99649 14.6022 7.99649 15.3658 8.01103C15.5377 8.07019 15.654 8.18292 15.7149 8.34922C15.7149 9.2147 15.7149 10.0802 15.7149 10.9456C15.6513 11.1219 15.5277 11.2346 15.344 11.2838C14.3767 11.2911 13.4094 11.2984 12.4421 11.3057C12.2901 11.5302 12.1229 11.7411 11.9403 11.9384C11.851 11.9652 11.7747 11.947 11.7112 11.8838C11.5652 11.6978 11.4234 11.5087 11.2857 11.3166C10.9369 11.2984 10.5878 11.2875 10.2384 11.2838C10.0105 11.21 9.88324 11.0536 9.85662 10.8147C9.84206 10.0365 9.84206 9.25833 9.85662 8.48013C9.87436 8.24441 9.99436 8.08804 10.2166 8.01103C10.9803 7.99649 11.7439 7.99649 12.5076 8.01103C12.5563 8.04677 12.5854 8.09404 12.5949 8.15285Z" fill="black"/>
<path opacity="0.999" fill-rule="evenodd" clip-rule="evenodd" d="M6.52884 8.15283C6.65975 8.15283 6.79066 8.15283 6.92157 8.15283C6.92253 8.23115 6.9589 8.2857 7.03067 8.31647C7.28512 8.32738 7.53967 8.33101 7.79432 8.32738C7.80475 9.01967 7.79384 9.7106 7.76159 10.4002C7.71311 10.485 7.64403 10.5468 7.55431 10.5856C7.33626 10.5965 7.11807 10.6001 6.89975 10.5965C6.9056 10.5616 6.89831 10.5326 6.87793 10.5093C6.8422 10.3895 6.76219 10.3495 6.63793 10.3892C6.56985 10.4418 6.54076 10.5109 6.55065 10.5965C6.12883 10.5965 5.707 10.5965 5.28517 10.5965C5.27457 9.86007 5.28548 9.12551 5.3179 8.39284C5.33759 8.36662 5.36305 8.34844 5.39426 8.33829C5.72882 8.33102 6.06337 8.32374 6.39792 8.31647C6.47194 8.28283 6.51558 8.22829 6.52884 8.15283Z" fill="#DFEFFD"/>
<path opacity="0.999" fill-rule="evenodd" clip-rule="evenodd" d="M12.5954 8.15283C12.7263 8.15283 12.8572 8.15283 12.9881 8.15283C13.0061 8.19404 13.0242 8.23767 13.0427 8.28374C13.059 8.2974 13.0772 8.30831 13.0972 8.31647C13.7372 8.32738 14.3772 8.33102 15.0173 8.32738C15.0209 8.99653 15.0173 9.66563 15.0063 10.3347C14.978 10.4389 14.9162 10.5152 14.8209 10.5638C13.2803 10.5963 11.7385 10.6072 10.1953 10.5965C10.1847 9.86007 10.1956 9.12551 10.2281 8.39284C10.2554 8.37733 10.2809 8.35915 10.3044 8.33829C11.0244 8.33102 11.7445 8.32374 12.4645 8.31647C12.5425 8.28693 12.5861 8.23238 12.5954 8.15283Z" fill="#E0F0FE"/>
<path fill-rule="evenodd" clip-rule="evenodd" d="M7.79566 8.3274C7.87599 8.32379 7.95598 8.32743 8.03566 8.33831C8.09021 8.36376 8.1302 8.40376 8.15566 8.45831C8.17022 9.25105 8.17022 10.0438 8.15566 10.8365C8.13854 10.8755 8.1131 10.9082 8.0793 10.9347C7.7686 10.9631 7.45587 10.9776 7.14109 10.9784C6.99098 11.1503 6.84916 11.3284 6.71563 11.5129C6.58078 11.3274 6.43896 11.1492 6.29017 10.9784C5.9754 10.9776 5.66266 10.9631 5.35196 10.9347C5.32575 10.915 5.30756 10.8896 5.29741 10.8584C5.28653 10.7714 5.28289 10.6841 5.28651 10.5965C5.70833 10.5965 6.13016 10.5965 6.55199 10.5965C6.55504 10.7415 6.62777 10.8033 6.77018 10.782C6.80914 10.7649 6.84187 10.7394 6.86836 10.7056C6.87923 10.6406 6.88287 10.5751 6.87927 10.5093C6.89965 10.5326 6.90694 10.5617 6.90109 10.5965C7.11941 10.6002 7.33759 10.5965 7.55565 10.5856C7.64537 10.5468 7.71445 10.485 7.76293 10.4002C7.79518 9.71061 7.80608 9.01969 7.79566 8.3274Z" fill="#C8DFFC"/>
<path fill-rule="evenodd" clip-rule="evenodd" d="M15.0166 8.3274C15.097 8.32379 15.177 8.32743 15.2567 8.33831C15.3099 8.35519 15.3499 8.38792 15.3767 8.43649C15.3912 9.23651 15.3912 10.0365 15.3767 10.8365C15.3585 10.8984 15.3185 10.9384 15.2567 10.9565C14.2675 10.9638 13.2784 10.9711 12.2893 10.9784C12.1399 11.1497 11.998 11.3279 11.8638 11.5129C11.7464 11.3736 11.6373 11.2282 11.5366 11.0766C11.5029 11.0356 11.4629 11.0028 11.4166 10.9784C11.0456 10.9711 10.6747 10.9638 10.3038 10.9565C10.2638 10.9311 10.2311 10.8984 10.2056 10.8584C10.1947 10.7714 10.1911 10.6841 10.1947 10.5965C11.7378 10.6072 13.2797 10.5963 14.8203 10.5638C14.9156 10.5152 14.9774 10.4389 15.0057 10.3347C15.0166 9.66565 15.0203 8.99654 15.0166 8.3274Z" fill="#C9E0FD"/>
<path fill-rule="evenodd" clip-rule="evenodd" d="M6.53018 8.58925C7.09454 8.53939 7.3891 8.79395 7.41384 9.35291C7.36763 9.67175 7.18943 9.86811 6.87928 9.94201C6.8658 10.0755 6.79305 10.13 6.66109 10.1057C6.57778 10.0481 6.54141 9.96804 6.552 9.86565C6.53652 9.7798 6.56562 9.71434 6.63928 9.66928C6.95752 9.65659 7.10663 9.49295 7.08656 9.17836C6.988 8.94543 6.81708 8.86179 6.57382 8.92744C6.51283 8.96657 6.45828 9.01384 6.41018 9.06927C6.37714 9.18182 6.33713 9.29092 6.29018 9.39655C6.19148 9.4648 6.10784 9.45025 6.03926 9.35291C6.01611 8.97722 6.17975 8.72266 6.53018 8.58925Z" fill="#050606"/>
<path fill-rule="evenodd" clip-rule="evenodd" d="M10.9801 8.78554C12.1801 8.78191 13.3801 8.78554 14.5802 8.79645C14.692 8.85216 14.7175 8.9358 14.6565 9.04737C14.6368 9.07358 14.6114 9.09176 14.5802 9.10191C13.3874 9.11646 12.1947 9.11646 11.0019 9.10191C10.8664 9.00549 10.8592 8.90003 10.9801 8.78554Z" fill="#010101"/>
<path fill-rule="evenodd" clip-rule="evenodd" d="M10.9812 9.48379C12.1813 9.48015 13.3813 9.48379 14.5813 9.4947C14.6932 9.5504 14.7186 9.63404 14.6577 9.74561C14.638 9.77182 14.6125 9.79001 14.5813 9.80016C13.3813 9.8147 12.1813 9.8147 10.9812 9.80016C10.8656 9.69307 10.8656 9.58761 10.9812 9.48379Z" fill="#010101"/>
<path fill-rule="evenodd" clip-rule="evenodd" d="M10.9812 10.182C11.934 10.1784 12.8868 10.182 13.8395 10.1929C13.9584 10.2637 13.9765 10.3546 13.894 10.4657C13.8707 10.4808 13.8453 10.4917 13.8177 10.4984C12.8722 10.513 11.9267 10.513 10.9812 10.4984C10.8656 10.3913 10.8656 10.2858 10.9812 10.182Z" fill="#010101"/>
<path fill-rule="evenodd" clip-rule="evenodd" d="M6.87799 10.5092C6.88159 10.5751 6.87795 10.6405 6.86708 10.7056C6.84059 10.7394 6.80787 10.7648 6.7689 10.782C6.6265 10.8033 6.55377 10.7414 6.55071 10.5965C6.54082 10.5108 6.56991 10.4418 6.63799 10.3892C6.76224 10.3495 6.84225 10.3895 6.87799 10.5092Z" fill="#070808"/>
<path opacity="0.98" fill-rule="evenodd" clip-rule="evenodd" d="M4.54297 18.6695C4.54297 17.644 4.54297 16.6185 4.54297 15.593C4.69953 15.0292 5.07045 14.7311 5.65572 14.6984C5.58301 14.5455 5.52846 14.3855 5.49208 14.2184C5.47754 13.7021 5.47754 13.1857 5.49208 12.6693C5.58699 12.3562 5.79427 12.1635 6.11391 12.0911C6.51392 12.0766 6.91394 12.0766 7.31394 12.0911C7.68359 12.1626 7.89816 12.3844 7.95759 12.7566C7.97775 13.2591 7.97049 13.761 7.93578 14.2621C7.90481 14.4095 7.85027 14.5477 7.77214 14.6766C8.39185 14.7401 8.76641 15.0747 8.8958 15.6803C8.91035 16.6621 8.91035 17.644 8.8958 18.6258C8.87867 18.6648 8.85323 18.6975 8.81943 18.724C7.42304 18.7386 6.02664 18.7386 4.63024 18.724C4.59787 18.7096 4.56877 18.6914 4.54297 18.6695Z" fill="#010102"/>
<path opacity="0.973" fill-rule="evenodd" clip-rule="evenodd" d="M15.7148 15.593C15.7148 16.6185 15.7148 17.644 15.7148 18.6695C15.689 18.6914 15.6599 18.7096 15.6275 18.724C14.442 18.7386 13.2565 18.7386 12.0711 18.724C12.0042 18.7007 11.9715 18.6535 11.9729 18.5822C11.9656 17.9785 11.9583 17.3749 11.9511 16.7712C11.802 16.9203 11.6529 17.0694 11.5038 17.2185C11.184 17.4339 10.864 17.4339 10.5438 17.2185C10.4238 17.0985 10.3038 16.9785 10.1838 16.8585C10.144 16.7875 10.1404 16.7148 10.1728 16.6403C10.2471 16.5992 10.327 16.5883 10.4129 16.6076C10.5292 16.7239 10.6456 16.8403 10.762 16.9567C10.7891 16.9739 10.8182 16.9849 10.8492 16.9894C10.9959 17.0498 11.1414 17.0389 11.2856 16.9567C11.5402 16.7021 11.7947 16.4476 12.0493 16.193C12.0764 16.1758 12.1055 16.1649 12.1365 16.1603C12.2073 16.1721 12.2619 16.2084 12.3002 16.2694C12.3111 16.9821 12.3147 17.6949 12.3111 18.4076C12.9729 18.4076 13.6348 18.4076 14.2966 18.4076C14.2929 17.6803 14.2966 16.953 14.3075 16.2258C14.3656 16.1181 14.4493 16.0926 14.5584 16.1494C14.5946 16.1819 14.6164 16.2219 14.6239 16.2694C14.6239 16.9821 14.6239 17.6949 14.6239 18.4076C14.8784 18.4076 15.133 18.4076 15.3875 18.4076C15.3912 17.4912 15.3875 16.5748 15.3766 15.6585C15.2678 15.2769 15.0169 15.0659 14.6239 15.0257C14.4492 15.0221 14.2746 15.0257 14.1002 15.0366C13.7874 15.2204 13.4528 15.2713 13.0966 15.1894C12.9793 15.1552 12.8702 15.1043 12.7693 15.0366C12.5584 15.0221 12.3475 15.0221 12.1365 15.0366C11.9753 15.0889 11.8299 15.1689 11.7002 15.2766C11.5031 15.4664 11.314 15.6627 11.1329 15.8657C11.0475 15.9133 10.9675 15.906 10.8929 15.8439C10.6601 15.6112 10.4274 15.3785 10.1947 15.1457C9.89721 15.0104 9.67538 15.0868 9.5292 15.3748C9.50197 15.5213 9.52379 15.6595 9.59465 15.7894C9.70375 15.8985 9.81284 16.0076 9.92193 16.1167C9.96413 16.2055 9.96049 16.2928 9.91102 16.3785C9.83656 16.4109 9.76381 16.4073 9.69284 16.3676C9.57283 16.2476 9.45283 16.1276 9.33283 16.0076C9.09202 15.6222 9.12474 15.2622 9.43101 14.9275C9.80614 14.6691 10.1698 14.6837 10.5219 14.9712C10.6859 15.1388 10.8532 15.3024 11.0238 15.4621C11.1871 15.3097 11.3471 15.1533 11.5038 14.993C11.7581 14.7882 12.049 14.6755 12.3765 14.6548C12.2986 14.5266 12.2441 14.3884 12.2129 14.2403C12.1983 13.7166 12.1983 13.193 12.2129 12.6693C12.3086 12.3553 12.5159 12.1626 12.8347 12.0911C13.2347 12.0766 13.6348 12.0766 14.0348 12.0911C14.3522 12.1535 14.5595 12.3389 14.6566 12.6475C14.6806 12.9084 14.6915 13.1703 14.6893 13.433C14.6913 13.7028 14.6803 13.9719 14.6566 14.2403C14.6321 14.3938 14.5775 14.5356 14.4929 14.6657C15.1249 14.6864 15.5322 14.9955 15.7148 15.593Z" fill="#020101"/>
<path fill-rule="evenodd" clip-rule="evenodd" d="M6.18062 12.4293C6.4789 12.4257 6.77708 12.4293 7.07519 12.4403C7.16089 12.5207 7.21544 12.6189 7.23883 12.7348C7.24974 12.8874 7.25336 13.0401 7.24974 13.193C7.00692 13.1181 6.76329 13.0454 6.51881 12.9748C6.28112 13.0737 6.04475 13.1755 5.80971 13.2803C5.80068 13.0821 5.81159 12.8857 5.84243 12.6912C5.90858 12.5411 6.02131 12.4539 6.18062 12.4293Z" fill="#C48985"/>
<path fill-rule="evenodd" clip-rule="evenodd" d="M6.17969 12.4293C6.53231 12.4039 6.88869 12.4003 7.2488 12.4184C7.41491 12.4609 7.53491 12.5591 7.60881 12.7129C7.62697 12.917 7.62332 13.1206 7.5979 13.3239C7.47768 13.2839 7.36132 13.2403 7.2488 13.193C7.25243 13.04 7.2488 12.8873 7.23789 12.7348C7.2145 12.6189 7.15996 12.5207 7.07425 12.4402C6.77615 12.4293 6.47796 12.4257 6.17969 12.4293Z" fill="#B57874"/>
<path fill-rule="evenodd" clip-rule="evenodd" d="M12.8778 12.4293C13.1833 12.4257 13.4888 12.4293 13.7942 12.4403C13.8737 12.5156 13.9283 12.6065 13.9578 12.713C13.9687 12.9165 13.9724 13.1201 13.9687 13.3239C13.697 13.3044 13.4715 13.1917 13.2924 12.9857C13.2624 12.9666 13.2297 12.9557 13.1942 12.953C13.0725 13.0229 12.9452 13.0847 12.8123 13.1385C12.7181 13.1493 12.6235 13.153 12.5287 13.1494C12.5251 13.011 12.5287 12.8728 12.5396 12.7348C12.6017 12.5744 12.7145 12.4726 12.8778 12.4293Z" fill="#FDE39E"/>
<path fill-rule="evenodd" clip-rule="evenodd" d="M12.8789 12.4293C13.2388 12.4039 13.6025 12.4003 13.9698 12.4184C14.1444 12.4621 14.2644 12.5675 14.3298 12.7348C14.3408 12.9237 14.3444 13.1128 14.3408 13.302C14.2181 13.3207 14.0945 13.3279 13.9698 13.3239C13.9735 13.1201 13.9698 12.9164 13.9589 12.7129C13.9294 12.6065 13.8748 12.5155 13.7953 12.4402C13.4899 12.4293 13.1845 12.4257 12.8789 12.4293Z" fill="#E9C77A"/>
<path fill-rule="evenodd" clip-rule="evenodd" d="M7.24905 13.5421C7.25267 13.7677 7.24905 13.9932 7.23814 14.2185C7.17037 14.5003 7.02129 14.7257 6.79086 14.8949C6.27581 14.9 5.95216 14.6527 5.81993 14.1531C5.80179 13.9853 5.80542 13.818 5.83084 13.6512C6.06586 13.5319 6.30223 13.4155 6.53995 13.3021C6.77439 13.3888 7.01077 13.4688 7.24905 13.5421Z" fill="#FDC9BC"/>
<path fill-rule="evenodd" clip-rule="evenodd" d="M13.9469 13.6511C14.0517 14.1568 13.9062 14.5713 13.5105 14.8948C12.9943 14.8985 12.6707 14.6512 12.5396 14.153C12.5287 13.9276 12.5251 13.7022 12.5287 13.4766C12.761 13.4997 12.9756 13.4488 13.1724 13.3239C13.3928 13.5198 13.6509 13.6289 13.9469 13.6511Z" fill="#FDC9BD"/>
<path fill-rule="evenodd" clip-rule="evenodd" d="M7.24921 13.5421C7.36325 13.5899 7.47964 13.6335 7.59831 13.673C7.67443 14.0083 7.6126 14.3137 7.41285 14.5894C7.2445 14.77 7.03722 14.8718 6.79102 14.8949C7.02144 14.7257 7.17053 14.5003 7.2383 14.2185C7.24921 13.9932 7.25283 13.7677 7.24921 13.5421Z" fill="#F5BCAD"/>
<path fill-rule="evenodd" clip-rule="evenodd" d="M13.5117 14.8949C13.9074 14.5714 14.0528 14.1569 13.9481 13.6512C14.0798 13.6543 14.2107 13.647 14.3408 13.6294C14.3471 13.8413 14.3362 14.0522 14.3081 14.2621C14.1732 14.6369 13.9077 14.8478 13.5117 14.8949Z" fill="#F3BBAC"/>
<path fill-rule="evenodd" clip-rule="evenodd" d="M7.79421 15.0258C8.01303 15.1981 8.14759 15.4236 8.19786 15.7022C8.21241 16.5603 8.21241 17.4186 8.19786 18.2768C8.18535 18.3235 8.16718 18.3671 8.14331 18.4077C8.02695 18.4077 7.91057 18.4077 7.79421 18.4077C7.79785 17.6731 7.79421 16.9385 7.7833 16.204C7.68697 16.09 7.59241 16.09 7.49966 16.204C7.48875 16.9385 7.4851 17.6731 7.48875 18.4077C6.97965 18.4077 6.47054 18.4077 5.96144 18.4077C5.96508 17.6803 5.96144 16.9531 5.95053 16.2258C5.84871 16.0803 5.74689 16.0803 5.64507 16.2258C5.63416 16.9531 5.63052 17.6803 5.63416 18.4077C5.37961 18.4077 5.12506 18.4077 4.8705 18.4077C4.86687 17.4913 4.8705 16.5749 4.88141 15.6585C4.97233 15.3349 5.1796 15.1276 5.50325 15.0367C5.68507 15.0221 5.86689 15.0221 6.04871 15.0367C6.35343 15.2212 6.68071 15.2721 7.03056 15.1894C7.15671 15.1595 7.27307 15.1086 7.37965 15.0367C7.51766 15.0258 7.65584 15.0221 7.79421 15.0258Z" fill="#A3CBFD"/>
<path fill-rule="evenodd" clip-rule="evenodd" d="M14.6236 15.0258C14.8075 15.1844 14.9347 15.3808 15.0054 15.6149C15.02 16.5167 15.02 17.4186 15.0054 18.3204C14.9972 18.3404 14.9863 18.3586 14.9727 18.3749C14.8638 18.3858 14.7547 18.3895 14.6454 18.3859C14.6526 17.6767 14.6454 16.9712 14.6236 16.2694C14.6162 16.2219 14.5943 16.1819 14.5581 16.1494C14.449 16.0927 14.3654 16.1181 14.3072 16.2258C14.2963 16.9531 14.2927 17.6803 14.2963 18.4077C13.6345 18.4077 12.9726 18.4077 12.3108 18.4077C12.3144 17.6949 12.3108 16.9821 12.2999 16.2694C12.2616 16.2085 12.2071 16.1721 12.1363 16.1603C12.1363 16.0658 12.1363 15.9712 12.1363 15.8767C12.1133 15.8734 12.0915 15.8771 12.0708 15.8876C11.7362 16.2222 11.4017 16.5567 11.0671 16.8913C11.0021 16.942 10.9294 16.9747 10.8489 16.9895C10.8179 16.9849 10.7888 16.974 10.7617 16.9567C10.6453 16.8404 10.5289 16.724 10.4126 16.6076C10.3268 16.5883 10.2468 16.5992 10.1726 16.6404C10.0926 16.5458 10.0053 16.4585 9.91074 16.3785C9.96021 16.2928 9.96385 16.2056 9.92165 16.1167C9.81256 16.0076 9.70347 15.8985 9.59437 15.7894C9.5235 15.6596 9.50169 15.5214 9.52892 15.3749C9.6751 15.0868 9.89693 15.0104 10.1944 15.1458C10.4271 15.3785 10.6598 15.6112 10.8926 15.844C10.9672 15.9061 11.0472 15.9134 11.1326 15.8658C11.3138 15.6628 11.5028 15.4664 11.6999 15.2767C11.8296 15.169 11.975 15.089 12.1363 15.0367C12.3472 15.0221 12.5581 15.0221 12.769 15.0367C12.8699 15.1043 12.979 15.1552 13.0963 15.1894C13.4525 15.2714 13.7871 15.2205 14.0999 15.0367C14.2743 15.0258 14.4489 15.0221 14.6236 15.0258Z" fill="#EAD1FE"/>
<path fill-rule="evenodd" clip-rule="evenodd" d="M7.79492 15.0258C8.17897 15.0643 8.42989 15.2679 8.54767 15.6367C8.55858 16.5603 8.56222 17.484 8.55858 18.4077C8.4204 18.4077 8.2822 18.4077 8.14402 18.4077C8.16789 18.3671 8.18607 18.3235 8.19857 18.2767C8.21312 17.4185 8.21312 16.5603 8.19857 15.7021C8.1483 15.4236 8.01374 15.1981 7.79492 15.0258Z" fill="#89BEFE"/>
<path fill-rule="evenodd" clip-rule="evenodd" d="M14.623 15.0258C15.0161 15.066 15.267 15.2769 15.3758 15.6585C15.3867 16.5749 15.3903 17.4912 15.3867 18.4077C15.1321 18.4077 14.8776 18.4077 14.623 18.4077C14.623 17.6949 14.623 16.9822 14.623 16.2694C14.6448 16.9712 14.6521 17.6766 14.6449 18.3858C14.7542 18.3895 14.8633 18.3858 14.9721 18.3749C14.9858 18.3586 14.9967 18.3404 15.0049 18.3204C15.0194 17.4185 15.0194 16.5167 15.0049 15.6149C14.9342 15.3808 14.8069 15.1844 14.623 15.0258Z" fill="#D6BDEE"/>
<path fill-rule="evenodd" clip-rule="evenodd" d="M12.1369 16.1603C12.1059 16.1648 12.0768 16.1758 12.0496 16.193C11.7951 16.4476 11.5405 16.7021 11.286 16.9567C11.1417 17.0388 10.9963 17.0497 10.8496 16.9894C10.9301 16.9746 11.0028 16.9419 11.0678 16.8912C11.4023 16.5567 11.7369 16.2221 12.0715 15.8876C12.0921 15.877 12.114 15.8734 12.1369 15.8766C12.1369 15.9712 12.1369 16.0657 12.1369 16.1603Z" fill="#D5BCEE"/>
</g>
</g>
<defs>
<clipPath id="clip0_440_7340">
<rect width="20" height="20" fill="white" transform="translate(0.5)"/>
</clipPath>
<clipPath id="clip1_440_7340">
<rect width="11.1712" height="11.1712" fill="white" transform="translate(4.55469 7.79285)"/>
</clipPath>
</defs>
</svg>
