<svg width="20" height="20" viewBox="0 0 20 20" fill="none" xmlns="http://www.w3.org/2000/svg">
<g clip-path="url(#clip0_440_7434)">
<path opacity="0.977" fill-rule="evenodd" clip-rule="evenodd" d="M3.33984 -0.0195312C7.76691 -0.0195312 12.194 -0.0195312 16.6211 -0.0195312C16.8474 0.0964508 16.9972 0.278743 17.0703 0.527344C17.0964 3.82161 17.0964 7.1159 17.0703 10.4102C17.0162 10.7117 16.8404 10.9005 16.543 10.9766C16.0091 10.9896 15.4753 11.0026 14.9414 11.0156C14.8739 11.0699 14.8218 11.135 14.7852 11.2109C14.9016 11.4944 14.9602 11.7873 14.9609 12.0898C14.9115 12.2123 14.8204 12.2774 14.6875 12.2852C14.171 12.1434 13.6566 11.9936 13.1445 11.8359C12.2477 11.88 11.4665 11.6065 10.8008 11.0156C9.03 10.9961 7.25918 10.9896 5.48828 10.9961C5.50641 12.2868 5.48688 13.5758 5.42969 14.8633C5.2757 15.4844 4.93067 15.9661 4.39453 16.3086C5.37684 16.9473 5.80652 17.8588 5.68359 19.043C5.67707 19.2773 5.67059 19.5117 5.66406 19.7461C5.64203 19.8393 5.59649 19.9175 5.52734 19.9805C3.97785 19.9805 2.42839 19.9805 0.878907 19.9805C0.814704 19.9486 0.76913 19.8965 0.742188 19.8242C0.716146 19.2643 0.716146 18.7044 0.742188 18.1445C0.864161 17.339 1.27432 16.7271 1.97266 16.3086C1.30729 15.8446 0.94922 15.2066 0.898438 14.3945C0.861962 12.9484 0.874985 11.503 0.937501 10.0586C1.08675 9.39488 1.44482 8.87406 2.01172 8.49609C1.10565 7.76316 0.864767 6.85168 1.28906 5.76172C1.62624 5.11855 2.15359 4.74094 2.87109 4.62891C2.86459 4.0168 2.8711 3.40481 2.89063 2.79297C2.93971 2.65446 3.03736 2.57633 3.18359 2.55859C3.31221 2.59413 3.40987 2.67225 3.47656 2.79297C3.48958 3.40495 3.50261 4.01691 3.51563 4.62891C4.75711 4.93672 5.34305 5.73098 5.27344 7.01172C5.14789 7.63719 4.82891 8.13199 4.31641 8.49609C4.94879 8.90152 5.32637 9.47445 5.44922 10.2148C5.44922 10.28 5.44922 10.345 5.44922 10.4102C7.09004 10.4232 8.73067 10.4102 10.3711 10.3711C10.3663 10.3474 10.3532 10.3344 10.332 10.332C9.80524 8.65762 10.3652 7.50527 12.0117 6.875C13.2416 6.57844 14.2898 6.88441 15.1563 7.79297C15.7455 8.57996 15.8432 9.42629 15.4492 10.332C15.428 10.3344 15.415 10.3474 15.4102 10.3711C15.7549 10.4227 16.0934 10.4227 16.4258 10.3711C16.4713 7.12242 16.4778 3.86723 16.4453 0.605469C16.2211 0.567387 15.9932 0.554367 15.7617 0.566406C13.6263 0.559895 11.4909 0.566406 9.35547 0.585938C10.4548 1.56427 10.6176 2.67755 9.84375 3.92578C9.1632 4.71305 8.29735 5.08414 7.24609 5.03906C6.74426 5.18898 6.24297 5.33875 5.74219 5.48828C5.54805 5.46336 5.45039 5.3527 5.44922 5.15625C5.51785 4.88855 5.57645 4.62164 5.625 4.35547C4.66371 3.46589 4.48145 2.43724 5.07813 1.26953C5.25227 1.00423 5.46711 0.776359 5.72266 0.585938C4.99348 0.559895 4.26434 0.559895 3.53516 0.585938C3.5032 0.91491 3.48367 1.24694 3.47656 1.58203C3.42748 1.72054 3.32983 1.79867 3.18359 1.81641C3.02201 1.81711 2.92436 1.73899 2.89063 1.58203C2.86458 1.23047 2.86458 0.878906 2.89063 0.527344C2.96377 0.278743 3.11351 0.0964508 3.33984 -0.0195312Z" fill="#020202"/>
<path fill-rule="evenodd" clip-rule="evenodd" d="M15.7617 0.566407C15.7617 3.83464 15.7617 7.10285 15.7617 10.3711C15.649 10.383 15.5448 10.37 15.4492 10.332C15.8432 9.42629 15.7455 8.57996 15.1562 7.79297C14.2898 6.88441 13.2416 6.57844 12.0117 6.875C10.3652 7.50527 9.80523 8.65762 10.332 10.332C8.7241 10.3711 7.10949 10.3841 5.48828 10.3711C5.49875 10.3086 5.4857 10.2566 5.44922 10.2148C5.32637 9.47445 4.94879 8.90152 4.31641 8.49609C4.82891 8.13199 5.14789 7.63719 5.27344 7.01172C5.34305 5.73098 4.75711 4.93672 3.51562 4.62891C3.50261 4.01691 3.48958 3.40495 3.47656 2.79297C3.40987 2.67225 3.31221 2.59413 3.18359 2.55859C3.18359 2.3112 3.18359 2.0638 3.18359 1.81641C3.32982 1.79867 3.42748 1.72054 3.47656 1.58203C3.48367 1.24694 3.5032 0.914911 3.53516 0.585938C4.26434 0.559895 4.99348 0.559895 5.72266 0.585938C5.46711 0.77636 5.25227 1.00423 5.07812 1.26953C4.48145 2.43724 4.66371 3.46589 5.625 4.35547C5.57645 4.62164 5.51785 4.88856 5.44922 5.15625C5.45039 5.3527 5.54805 5.46336 5.74219 5.48828C6.24297 5.33875 6.74426 5.18898 7.24609 5.03906C8.29734 5.08414 9.1632 4.71305 9.84375 3.92578C10.6176 2.67755 10.4548 1.56427 9.35547 0.585938C11.4909 0.566407 13.6263 0.559895 15.7617 0.566407Z" fill="#FDE1C9"/>
<path fill-rule="evenodd" clip-rule="evenodd" d="M8.22292 0.683623C9.29928 1.47373 9.52718 2.46331 8.90651 3.65237C8.70858 3.90897 8.48073 4.1303 8.22292 4.31643C8.11518 4.36569 7.998 4.39823 7.87136 4.41409C7.63698 4.4271 7.40261 4.44015 7.16823 4.45315C6.84538 4.54194 6.52639 4.6396 6.2112 4.74612C6.22514 4.56073 6.25116 4.37847 6.28932 4.19925C6.04284 3.96573 5.80846 3.71833 5.5862 3.45706C5.05925 2.23858 5.39128 1.33364 6.58229 0.742216C7.12362 0.532267 7.6705 0.512736 8.22292 0.683623Z" fill="#B1D8FC"/>
<path fill-rule="evenodd" clip-rule="evenodd" d="M15.7617 0.56635C15.9932 0.554311 16.2211 0.56733 16.4453 0.605412C16.4778 3.86717 16.4713 7.12237 16.4258 10.371C16.2044 10.371 15.9831 10.371 15.7617 10.371C15.7617 7.1028 15.7617 3.83458 15.7617 0.56635Z" fill="#FDD5B0"/>
<path fill-rule="evenodd" clip-rule="evenodd" d="M8.22266 0.683594C9.13453 0.950867 9.64234 1.55634 9.74609 2.5C9.64082 3.44498 9.13301 4.05043 8.22266 4.31641C8.48047 4.13027 8.70832 3.90895 8.90625 3.65234C9.52691 2.46329 9.29902 1.4737 8.22266 0.683594Z" fill="#87C5F9"/>
<path fill-rule="evenodd" clip-rule="evenodd" d="M6.19149 2.28516C6.53032 2.26586 6.66704 2.42211 6.60165 2.75391C6.40497 3.00954 6.20965 3.00954 6.01571 2.75391C5.9561 2.5484 6.01469 2.39215 6.19149 2.28516Z" fill="#07080A"/>
<path fill-rule="evenodd" clip-rule="evenodd" d="M7.40243 2.28511C7.74337 2.26776 7.88008 2.42401 7.81258 2.75386C7.6159 3.0095 7.42059 3.0095 7.22665 2.75386C7.16704 2.54835 7.22563 2.3921 7.40243 2.28511Z" fill="#07080A"/>
<path fill-rule="evenodd" clip-rule="evenodd" d="M8.61337 2.28511C8.9543 2.26776 9.09102 2.42401 9.02352 2.75386C8.82684 3.0095 8.63153 3.0095 8.43758 2.75386C8.37798 2.54835 8.43657 2.3921 8.61337 2.28511Z" fill="#07090A"/>
<path fill-rule="evenodd" clip-rule="evenodd" d="M3.34015 5.21483C3.98593 5.71276 4.22683 6.36381 4.06281 7.16795C3.92211 7.56701 3.69423 7.90553 3.37921 8.18358C2.65419 8.24885 2.12685 7.94936 1.79718 7.28514C1.51534 6.27979 1.86039 5.59619 2.83234 5.23436C3.00111 5.21487 3.17038 5.20834 3.34015 5.21483Z" fill="#FDCCBD"/>
<path fill-rule="evenodd" clip-rule="evenodd" d="M3.33984 5.21484C4.15707 5.35496 4.61277 5.83672 4.70703 6.66016C4.69855 7.24371 4.45117 7.69293 3.96484 8.00781C3.78195 8.10887 3.58664 8.16746 3.37891 8.18359C3.69392 7.90555 3.9218 7.56703 4.0625 7.16797C4.22652 6.36383 3.98562 5.71277 3.33984 5.21484Z" fill="#FBBCAE"/>
<path fill-rule="evenodd" clip-rule="evenodd" d="M13.6132 7.48049C14.5623 8.17318 14.8292 9.07162 14.4139 10.1758C14.2373 10.5219 13.9899 10.8083 13.6718 11.0352C13.6619 11.1301 13.6814 11.2213 13.7303 11.3086C13.7255 11.3323 13.7125 11.3453 13.6913 11.3477C13.5459 11.3275 13.4027 11.2949 13.2616 11.25C12.295 11.3231 11.5202 10.9781 10.9374 10.2149C10.4332 9.07107 10.7262 8.19217 11.8163 7.57814C12.2911 7.37451 12.7859 7.30939 13.3007 7.38283C13.4131 7.40416 13.5173 7.4367 13.6132 7.48049Z" fill="#F7C4C4"/>
<path fill-rule="evenodd" clip-rule="evenodd" d="M13.6133 7.48047C14.5129 7.73543 15.0076 8.32789 15.0977 9.25781C15.0829 9.66676 14.9592 10.0379 14.7266 10.3711C14.543 10.5677 14.3477 10.75 14.1406 10.918C14.1504 11.1291 14.1765 11.3375 14.2188 11.543C14.0364 11.4864 13.8606 11.4213 13.6914 11.3477C13.7126 11.3453 13.7256 11.3323 13.7305 11.3086C13.6816 11.2213 13.662 11.1301 13.6719 11.0352C13.99 10.8083 14.2374 10.5218 14.4141 10.1758C14.8293 9.0716 14.5624 8.17316 13.6133 7.48047Z" fill="#F4ADAD"/>
<path fill-rule="evenodd" clip-rule="evenodd" d="M3.45703 8.84769C3.87072 9.16651 4.13766 9.58319 4.25781 10.0977C4.27734 10.8398 4.28387 11.5819 4.27734 12.3242C3.25102 11.8528 2.33305 12.009 1.52344 12.793C1.4974 11.9206 1.4974 11.0482 1.52344 10.1758C1.81525 9.20101 2.45979 8.75831 3.45703 8.84769Z" fill="#5E98D6"/>
<path fill-rule="evenodd" clip-rule="evenodd" d="M3.45703 8.84766C4.26723 8.99383 4.73598 9.47559 4.86328 10.293C4.87621 11.12 4.86316 11.9404 4.82422 12.7539C4.6634 12.5797 4.48109 12.4364 4.27734 12.3242C4.28387 11.5819 4.27734 10.8397 4.25781 10.0977C4.13766 9.58316 3.87071 9.16648 3.45703 8.84766Z" fill="#3C86CE"/>
<path fill-rule="evenodd" clip-rule="evenodd" d="M11.5043 9.08205C11.8384 9.01642 12.0012 9.14662 11.9925 9.47267C11.8452 9.73564 11.6499 9.7747 11.4066 9.58986C11.3116 9.39447 11.3441 9.22521 11.5043 9.08205Z" fill="#0A0808"/>
<path fill-rule="evenodd" clip-rule="evenodd" d="M12.754 9.08202C13.1958 9.07417 13.313 9.26296 13.1055 9.64843C12.7377 9.78726 12.5619 9.66355 12.5782 9.27733C12.6182 9.19191 12.6768 9.12679 12.754 9.08202Z" fill="#0A0808"/>
<path fill-rule="evenodd" clip-rule="evenodd" d="M13.9649 9.08202C14.4068 9.07417 14.524 9.26296 14.3165 9.64843C13.9486 9.78726 13.7729 9.66355 13.7891 9.27733C13.8292 9.19191 13.8878 9.12679 13.9649 9.08202Z" fill="#0B0808"/>
<path fill-rule="evenodd" clip-rule="evenodd" d="M5.44922 10.2148C5.4857 10.2566 5.49875 10.3086 5.48828 10.3711C7.10949 10.3841 8.7241 10.3711 10.332 10.332C10.3532 10.3344 10.3663 10.3474 10.3711 10.3711C8.73066 10.4102 7.09004 10.4232 5.44922 10.4102C5.44922 10.345 5.44922 10.28 5.44922 10.2148Z" fill="#786A5E"/>
<path fill-rule="evenodd" clip-rule="evenodd" d="M15.4492 10.332C15.5448 10.37 15.649 10.383 15.7617 10.3711C15.9831 10.3711 16.2044 10.3711 16.4258 10.3711C16.0934 10.4227 15.7549 10.4227 15.4102 10.3711C15.415 10.3474 15.428 10.3344 15.4492 10.332Z" fill="#756354"/>
<path fill-rule="evenodd" clip-rule="evenodd" d="M4.86328 10.293C4.91516 11.1199 4.91516 11.9533 4.86328 12.793C4.83957 12.7881 4.82656 12.7751 4.82422 12.7539C4.86316 11.9404 4.87621 11.12 4.86328 10.293Z" fill="#1F466D"/>
<path opacity="0.971" fill-rule="evenodd" clip-rule="evenodd" d="M12.2855 19.9805C10.7491 19.9805 9.21262 19.9805 7.67617 19.9805C7.61196 19.9486 7.56641 19.8965 7.53946 19.8242C7.50332 19.1714 7.51633 18.5204 7.57852 17.8711C7.76242 17.1861 8.15957 16.6653 8.76992 16.3086C7.85692 15.6596 7.52489 14.7873 7.77383 13.6914C8.14485 12.6561 8.88055 12.1092 9.98086 12.0508C11.0812 12.1092 11.8169 12.6561 12.1879 13.6914C12.4368 14.7873 12.1048 15.6596 11.1918 16.3086C11.8034 16.6663 12.2005 17.1871 12.3832 17.8711C12.4454 18.5204 12.4584 19.1714 12.4223 19.8242C12.3953 19.8965 12.3498 19.9486 12.2855 19.9805Z" fill="#010000"/>
<path opacity="0.963" fill-rule="evenodd" clip-rule="evenodd" d="M19.0823 19.9804C18.3271 19.9804 17.5719 19.9804 16.8167 19.9804C16.7345 19.9073 16.6824 19.8162 16.6604 19.707C16.682 19.5864 16.7472 19.4888 16.8558 19.414C17.2461 19.3945 17.6368 19.388 18.0276 19.3945C18.236 19.3945 18.4443 19.3945 18.6526 19.3945C18.6591 19.0167 18.6526 18.6391 18.6331 18.2617C18.4646 17.3705 17.9372 16.8367 17.0511 16.6601C15.9526 16.562 15.243 17.0438 14.9222 18.1054C14.9026 18.5349 14.8961 18.9646 14.9026 19.3945C15.1634 19.388 15.4238 19.3945 15.6839 19.414C15.8215 19.4602 15.8996 19.5579 15.9183 19.707C15.9155 19.8301 15.8634 19.9213 15.762 19.9804C15.3193 19.9804 14.8766 19.9804 14.4339 19.9804C14.3647 19.9174 14.3192 19.8393 14.2972 19.7461C14.2546 19.1046 14.2806 18.4666 14.3753 17.832C14.5763 17.169 14.9735 16.6611 15.5667 16.3086C14.6309 15.6567 14.2988 14.7713 14.5706 13.6523C15.1152 12.3415 16.0852 11.8403 17.4808 12.1484C18.6543 12.6399 19.1686 13.5188 19.0237 14.7851C18.8873 15.4357 18.5422 15.9435 17.9886 16.3086C18.6869 16.727 19.0971 17.339 19.219 18.1445C19.2451 18.7044 19.2451 19.2643 19.219 19.8242C19.1921 19.8965 19.1465 19.9486 19.0823 19.9804Z" fill="#010100"/>
<path fill-rule="evenodd" clip-rule="evenodd" d="M3.41802 12.6758C4.34915 13.4318 4.53798 14.3433 3.98442 15.4101C3.81394 15.6262 3.62514 15.8215 3.41802 15.9961C2.60078 16.0845 2.00833 15.759 1.64067 15.0195C1.3039 13.9028 1.675 13.128 2.75396 12.6953C2.97614 12.6329 3.1975 12.6264 3.41802 12.6758Z" fill="#FDCCBD"/>
<path fill-rule="evenodd" clip-rule="evenodd" d="M10.215 12.6758C11.1893 13.5077 11.3391 14.4713 10.6642 15.5664C10.5185 15.7187 10.3688 15.8619 10.215 15.9961C9.25515 16.0597 8.62367 15.63 8.32042 14.707C8.21488 13.4977 8.76175 12.8076 9.96105 12.6367C10.0491 12.6393 10.1338 12.6523 10.215 12.6758Z" fill="#FDCCBD"/>
<path fill-rule="evenodd" clip-rule="evenodd" d="M16.9724 12.6758C17.7733 13.2867 18.0272 14.081 17.7341 15.0586C17.5771 15.4388 17.3362 15.7513 17.0115 15.9961C16.0415 16.0675 15.4099 15.6379 15.1169 14.7071C14.9941 13.709 15.4043 13.0385 16.3474 12.6954C16.56 12.6318 16.7683 12.6252 16.9724 12.6758Z" fill="#FDCCBD"/>
<path fill-rule="evenodd" clip-rule="evenodd" d="M3.41797 12.6758C4.14066 12.8058 4.6159 13.2225 4.84375 13.9258C4.99441 14.9336 4.59727 15.6172 3.65234 15.9766C3.57529 15.9959 3.49716 16.0024 3.41797 15.9961C3.62509 15.8215 3.81389 15.6262 3.98438 15.4102C4.53793 14.3433 4.3491 13.4318 3.41797 12.6758Z" fill="#FBBCAE"/>
<path fill-rule="evenodd" clip-rule="evenodd" d="M10.2148 12.6758C11.1027 12.8539 11.5844 13.3943 11.6602 14.2969C11.6195 15.2422 11.1377 15.8086 10.2148 15.9961C10.3687 15.8619 10.5184 15.7187 10.6641 15.5664C11.3389 14.4713 11.1892 13.5077 10.2148 12.6758Z" fill="#FBBCAE"/>
<path fill-rule="evenodd" clip-rule="evenodd" d="M16.9727 12.6758C17.8732 12.8341 18.368 13.368 18.457 14.2773C18.425 15.2335 17.9432 15.8064 17.0117 15.9961C17.3364 15.7513 17.5773 15.4388 17.7344 15.0586C18.0275 14.0809 17.7736 13.2866 16.9727 12.6758Z" fill="#FBBCAE"/>
<path fill-rule="evenodd" clip-rule="evenodd" d="M3.49658 16.6602C4.00861 17.0239 4.32759 17.5187 4.45361 18.1445C4.47314 18.561 4.47966 18.9777 4.47314 19.3945C3.41845 19.3945 2.36377 19.3945 1.30908 19.3945C1.30257 19.0037 1.30909 18.613 1.32861 18.2227C1.54822 17.2607 2.14718 16.7269 3.12548 16.6211C3.25116 16.6246 3.37486 16.6377 3.49658 16.6602Z" fill="#E74343"/>
<path fill-rule="evenodd" clip-rule="evenodd" d="M10.2153 16.6211C10.8182 17.019 11.1632 17.5789 11.2505 18.3007C11.27 18.6651 11.2765 19.0297 11.27 19.3945C10.2153 19.3945 9.16063 19.3945 8.10595 19.3945C8.09946 18.9906 8.10595 18.587 8.12548 18.1836C8.40841 17.108 9.10505 16.5872 10.2153 16.6211Z" fill="#E84343"/>
<path opacity="0.998" fill-rule="evenodd" clip-rule="evenodd" d="M17.0503 16.6602C17.4873 16.9597 17.7933 17.3634 17.9683 17.8711C18.0238 18.3765 18.0433 18.8843 18.0269 19.3945C17.636 19.388 17.2454 19.3945 16.855 19.4141C16.7464 19.4888 16.6813 19.5864 16.6597 19.707C16.4123 19.707 16.1649 19.707 15.9175 19.707C15.8989 19.5579 15.8207 19.4602 15.6831 19.4141C15.423 19.3945 15.1626 19.388 14.9019 19.3945C14.8953 18.9647 14.9019 18.535 14.9214 18.1055C15.2422 17.0438 15.9519 16.562 17.0503 16.6602Z" fill="#E84343"/>
<path fill-rule="evenodd" clip-rule="evenodd" d="M3.49609 16.6602C4.31672 16.8101 4.83105 17.2918 5.03906 18.1055C5.05859 18.535 5.06512 18.9646 5.05859 19.3945C4.86328 19.3945 4.66797 19.3945 4.47266 19.3945C4.47918 18.9777 4.47266 18.561 4.45312 18.1445C4.32711 17.5187 4.00813 17.0239 3.49609 16.6602Z" fill="#D53030"/>
<path fill-rule="evenodd" clip-rule="evenodd" d="M10.2148 16.6211C11.0799 16.8025 11.6203 17.3234 11.8359 18.1836C11.8555 18.587 11.862 18.9907 11.8555 19.3945C11.6602 19.3945 11.4648 19.3945 11.2695 19.3945C11.276 19.0297 11.2695 18.6651 11.25 18.3008C11.1627 17.5789 10.8177 17.019 10.2148 16.6211Z" fill="#D53030"/>
<path fill-rule="evenodd" clip-rule="evenodd" d="M17.0508 16.6602C17.937 16.8367 18.4643 17.3705 18.6328 18.2617C18.6523 18.6391 18.6588 19.0167 18.6523 19.3945C18.444 19.3945 18.2357 19.3945 18.0273 19.3945C18.0438 18.8843 18.0243 18.3765 17.9688 17.8711C17.7937 17.3634 17.4878 16.9597 17.0508 16.6602Z" fill="#D33030"/>
</g>
<defs>
<clipPath id="clip0_440_7434">
<rect width="20" height="20" fill="white"/>
</clipPath>
</defs>
</svg>
