<svg width="21" height="20" viewBox="0 0 21 20" fill="none" xmlns="http://www.w3.org/2000/svg">
<g clip-path="url(#clip0_440_7722)">
<path opacity="0.986" fill-rule="evenodd" clip-rule="evenodd" d="M11.8081 -0.0195312C12.0555 -0.0195312 12.3029 -0.0195312 12.5503 -0.0195312C13.0059 0.101401 13.364 0.361818 13.6245 0.761719C15.5288 4.01035 17.4428 7.25254 19.3667 10.4883C19.9084 11.4757 19.7327 12.3025 18.8394 12.9688C18.6545 13.0651 18.4592 13.1302 18.2534 13.1641C17.2376 13.1706 16.222 13.1901 15.2066 13.2227C15.0717 13.5705 14.9154 13.9091 14.7378 14.2383C15.5055 15.0255 16.2802 15.8068 17.062 16.582C17.752 17.7418 17.5762 18.7509 16.5347 19.6094C16.2771 19.7774 16.0036 19.9011 15.7144 19.9805C15.4409 19.9805 15.1675 19.9805 14.8941 19.9805C14.5727 19.8795 14.2733 19.7298 13.9956 19.5312C13.2144 18.75 12.4331 17.9688 11.6519 17.1875C11.449 17.2167 11.2537 17.2818 11.0659 17.3828C8.30829 18.313 5.8213 17.8442 3.60501 15.9766C1.47961 13.849 0.822063 11.3295 1.63235 8.41797C2.66948 5.6102 4.66817 3.97609 7.62844 3.51562C8.16204 3.45599 8.69587 3.44297 9.23001 3.47656C9.74434 2.54557 10.2586 1.61458 10.773 0.683594C11.0309 0.317304 11.3759 0.0829289 11.8081 -0.0195312Z" fill="#030302"/>
<path fill-rule="evenodd" clip-rule="evenodd" d="M18.0195 12.4804C17.1534 12.4934 16.294 12.4803 15.4414 12.4414C15.9977 9.8996 15.4183 7.65999 13.7031 5.72261C12.6709 4.65921 11.4274 3.9691 9.97266 3.6523C10.3872 2.82337 10.8234 2.00306 11.2812 1.19136C11.6579 0.636585 12.1462 0.512886 12.7461 0.820268C12.8307 0.904905 12.9154 0.989538 13 1.07417C14.9661 4.4075 16.9323 7.74085 18.8984 11.0742C19.0748 11.5865 18.9511 12.0096 18.5273 12.3437C18.3695 12.432 18.2003 12.4776 18.0195 12.4804Z" fill="#FED98B"/>
<path fill-rule="evenodd" clip-rule="evenodd" d="M7.78474 4.16017C7.93028 4.14755 8.07352 4.1606 8.21442 4.19923C6.73341 6.80978 5.24255 9.41392 3.74177 12.0117C3.24547 12.9151 3.38219 13.7029 4.15192 14.375C4.36968 14.51 4.60407 14.6011 4.85505 14.6485C7.77173 14.6615 10.6884 14.6745 13.605 14.6875C11.7481 16.8472 9.43036 17.5894 6.65192 16.9141C3.90832 15.9788 2.35233 14.0712 1.98395 11.1914C1.8754 8.4849 2.96263 6.42107 5.24567 5.00001C6.04368 4.55822 6.89001 4.27826 7.78474 4.16017Z" fill="#91CCF6"/>
<path opacity="0.999" fill-rule="evenodd" clip-rule="evenodd" d="M8.99647 4.16016C9.34131 4.19527 9.67987 4.26039 10.0121 4.35547C9.92729 4.47285 9.86869 4.60309 9.83631 4.74609C9.81026 6.21746 9.81026 7.68879 9.83631 9.16016C10.0157 9.91117 10.491 10.2302 11.2621 10.1172C11.7618 9.96898 12.0547 9.63695 12.141 9.12109C12.154 7.84504 12.1671 6.56902 12.1801 5.29297C14.5537 7.10035 15.413 9.47016 14.7582 12.4023C14.5992 12.9611 14.3713 13.4884 14.0746 13.9844C11.0147 14.0104 7.95479 14.0104 4.8949 13.9844C4.27748 13.7854 4.02358 13.3622 4.13319 12.7148C5.73498 9.84953 7.35608 6.99797 8.99647 4.16016Z" fill="#FED98B"/>
<path fill-rule="evenodd" clip-rule="evenodd" d="M10.7149 4.55078C10.974 4.62422 11.2214 4.7284 11.457 4.86328C11.5026 6.26934 11.5091 7.67559 11.4766 9.08203C11.3073 9.49871 11.0274 9.59637 10.6367 9.375C10.5742 9.29941 10.5286 9.2148 10.5 9.12109C10.474 7.68879 10.474 6.25652 10.5 4.82422C10.5378 4.7023 10.6094 4.61117 10.7149 4.55078Z" fill="#FDFCFD"/>
<path opacity="0.999" fill-rule="evenodd" clip-rule="evenodd" d="M10.7926 10.6445C11.9167 10.707 12.405 11.293 12.2575 12.4023C11.9124 13.1991 11.3199 13.479 10.4801 13.2422C9.83628 12.9115 9.56932 12.3842 9.67936 11.6602C9.87378 11.1204 10.2449 10.7818 10.7926 10.6445Z" fill="#030302"/>
<path fill-rule="evenodd" clip-rule="evenodd" d="M10.7541 11.3476C11.4224 11.293 11.7023 11.5925 11.594 12.2461C11.3561 12.662 11.024 12.7597 10.5979 12.539C10.3293 12.3111 10.2577 12.0312 10.3831 11.6992C10.477 11.5465 10.6007 11.4293 10.7541 11.3476Z" fill="#FCFBFC"/>
<path opacity="0.761" fill-rule="evenodd" clip-rule="evenodd" d="M15.4414 12.4414C16.294 12.4804 17.1534 12.4934 18.0195 12.4805C17.1535 12.5323 16.2811 12.5323 15.4023 12.4805C15.4072 12.4568 15.4202 12.4437 15.4414 12.4414Z" fill="#5F3146"/>
<path fill-rule="evenodd" clip-rule="evenodd" d="M14.3086 14.8242C15.0625 15.5585 15.8111 16.3007 16.5547 17.0508C16.9477 17.7552 16.8501 18.3868 16.2617 18.9453C15.6814 19.4038 15.0825 19.4299 14.4648 19.0234C13.7156 18.2807 12.9734 17.532 12.2383 16.7773C13.0544 16.2608 13.7445 15.6097 14.3086 14.8242Z" fill="#FEA4A4"/>
</g>
<defs>
<clipPath id="clip0_440_7722">
<rect width="20" height="20" fill="white" transform="translate(0.5)"/>
</clipPath>
</defs>
</svg>
