<svg width="20" height="20" viewBox="0 0 20 20" fill="none" xmlns="http://www.w3.org/2000/svg">
<g clip-path="url(#clip0_440_7555)">
<path opacity="0.974" fill-rule="evenodd" clip-rule="evenodd" d="M15.762 -0.0195312C15.8661 -0.0195312 15.9703 -0.0195312 16.0745 -0.0195312C16.1743 0.104207 16.2134 0.247436 16.1916 0.410156C16.5686 0.364384 16.6858 0.514125 16.5432 0.859375C16.4318 0.909711 16.3147 0.929242 16.1916 0.917969C16.2177 1.31128 16.0549 1.42846 15.7034 1.26953C15.653 1.15817 15.6335 1.04098 15.6448 0.917969C15.3912 0.987379 15.2479 0.896234 15.2151 0.644531C15.2114 0.550328 15.2505 0.478711 15.3323 0.429688C15.4356 0.410258 15.5398 0.403746 15.6448 0.410156C15.6177 0.244036 15.6568 0.100807 15.762 -0.0195312Z" fill="#6FD6F9"/>
<path opacity="0.948" fill-rule="evenodd" clip-rule="evenodd" d="M13.4965 0.605455C13.8197 0.574455 13.9435 0.717682 13.8676 1.03514C13.6983 1.19139 13.529 1.19139 13.3598 1.03514C13.3076 0.854365 13.3531 0.711135 13.4965 0.605455Z" fill="#F4C84B"/>
<path opacity="0.95" fill-rule="evenodd" clip-rule="evenodd" d="M1.46458 1.93359C5.57919 1.92708 9.69376 1.93359 13.8083 1.95313C15.5917 2.17437 16.8743 3.09234 17.656 4.70703C18.3248 6.4575 18.0904 8.07207 16.9529 9.55078C16.1775 10.4301 15.2074 10.9575 14.0427 11.1328C10.9052 11.183 7.76715 11.2091 4.62864 11.2109C3.8539 11.4128 3.36562 11.9011 3.16379 12.6758C3.07263 13.834 3.58695 14.5566 4.70676 14.8438C8.27446 14.8633 11.8422 14.8698 15.4099 14.8633C15.4034 13.8346 15.4099 12.8059 15.4294 11.7773C15.6594 11.2841 16.0044 11.1864 16.4646 11.4844C16.5519 11.6029 16.617 11.7332 16.6599 11.875C17.3179 12.2235 17.9819 12.5621 18.6521 12.8906C18.9646 13.138 18.9646 13.3854 18.6521 13.6328C17.9846 13.9829 17.314 14.3279 16.6404 14.668C16.6273 15.6445 16.6143 16.6211 16.6013 17.5977C16.435 17.9704 16.1551 18.0941 15.7615 17.9688C15.6313 17.8906 15.5271 17.7864 15.449 17.6562C11.8161 17.6432 8.18333 17.6302 4.55051 17.6172C2.6541 17.3632 1.3455 16.354 0.624732 14.5898C-0.00794822 12.4127 0.558459 10.6223 2.32395 9.21875C2.9517 8.79676 3.64181 8.53637 4.39426 8.4375C7.53309 8.43648 10.6711 8.41043 13.8083 8.35938C14.7087 8.09703 15.1905 7.49809 15.2536 6.5625C15.2182 5.80106 14.8666 5.24117 14.199 4.88281C14.0239 4.80648 13.8416 4.75441 13.6521 4.72656C9.58958 4.71356 5.52708 4.70051 1.46458 4.6875C0.620943 4.45227 0.24985 3.8989 0.351295 3.02734C0.511002 2.44443 0.882095 2.07985 1.46458 1.93359Z" fill="#020202"/>
<path fill-rule="evenodd" clip-rule="evenodd" d="M1.42571 2.36328C3.78252 2.35677 6.1393 2.36328 8.49602 2.38281C8.81559 2.69587 9.12809 3.01488 9.43352 3.33984C9.12809 3.66481 8.81559 3.98383 8.49602 4.29688C6.17833 4.32293 3.8606 4.32293 1.5429 4.29688C0.939893 4.12609 0.672968 3.72898 0.742116 3.10547C0.857553 2.74934 1.08542 2.50195 1.42571 2.36328Z" fill="#6ED3F6"/>
<path fill-rule="evenodd" clip-rule="evenodd" d="M13.6523 4.31641C12.1419 4.29035 10.6315 4.26434 9.12109 4.23828C9.36707 3.97274 9.62098 3.71231 9.88281 3.45703C9.90887 3.37891 9.90887 3.30078 9.88281 3.22266C9.58984 2.92969 9.29688 2.63672 9.00391 2.34375C10.5664 2.31771 12.1289 2.31771 13.6914 2.34375C15.4229 2.53554 16.6404 3.42746 17.3438 5.01953C17.9529 6.85762 17.5557 8.43965 16.1523 9.76563C15.4829 10.315 14.7146 10.6405 13.8477 10.7422C12.4154 10.7682 10.9831 10.7682 9.55078 10.7422C9.24422 10.4421 8.94473 10.1362 8.65234 9.82422C8.99684 9.49926 9.33539 9.16723 9.66797 8.82813C11.0221 8.81512 12.3763 8.80207 13.7305 8.78906C15.1408 8.4327 15.7723 7.52774 15.625 6.07422C15.3329 5.07852 14.6753 4.49258 13.6523 4.31641Z" fill="#85CF46"/>
<path fill-rule="evenodd" clip-rule="evenodd" d="M9.12109 4.23828C10.6315 4.26434 12.1419 4.29035 13.6523 4.31641C12.1158 4.32293 10.5794 4.31641 9.04297 4.29688C9.06422 4.26887 9.09027 4.24934 9.12109 4.23828Z" fill="#497026"/>
<path opacity="0.899" fill-rule="evenodd" clip-rule="evenodd" d="M5.84025 7.24608C6.16349 7.21507 6.2872 7.35831 6.21135 7.67577C6.04209 7.83202 5.87279 7.83202 5.70353 7.67577C5.65131 7.49499 5.69689 7.35175 5.84025 7.24608Z" fill="#FC647D"/>
<path fill-rule="evenodd" clip-rule="evenodd" d="M4.47298 8.8086C6.00951 8.80208 7.54595 8.8086 9.08236 8.82813C8.8024 9.10809 8.52247 9.38801 8.24251 9.66797C8.16439 9.77215 8.16439 9.87629 8.24251 9.98047C8.49642 10.2344 8.75033 10.4883 9.00423 10.7422C7.47931 10.7434 5.95587 10.7694 4.43392 10.8203C3.26878 11.2172 2.70238 12.0311 2.7347 13.2617C2.90281 14.3022 3.49526 14.9598 4.51204 15.2344C5.84017 15.2474 7.16829 15.2604 8.49642 15.2734C8.81599 15.5995 9.1415 15.9185 9.47298 16.2305C9.15454 16.5684 8.829 16.9005 8.49642 17.2266C7.20736 17.2526 5.91829 17.2526 4.62923 17.2266C2.44472 16.891 1.16217 15.6345 0.781576 13.457C0.705713 11.3228 1.64972 9.84497 3.61361 9.02344C3.90212 8.93887 4.18857 8.86727 4.47298 8.8086Z" fill="#F2C64B"/>
<path opacity="0.911" fill-rule="evenodd" clip-rule="evenodd" d="M19.082 10.9961C19.2103 11.2152 19.3926 11.3845 19.6289 11.5039C19.3685 11.582 19.1992 11.7513 19.1211 12.0117C19.0709 11.8918 19.0058 11.7811 18.9258 11.6797C18.8136 11.6041 18.6964 11.539 18.5742 11.4844C18.8404 11.42 19.0097 11.2572 19.082 10.9961Z" fill="#F5C74C"/>
<path fill-rule="evenodd" clip-rule="evenodd" d="M15.918 11.7383C16.0428 11.7173 16.1404 11.7563 16.2109 11.8555C16.237 13.7305 16.237 15.6055 16.2109 17.4805C16.1122 17.6205 15.995 17.6336 15.8594 17.5196C15.8333 15.6185 15.8333 13.7175 15.8594 11.8164C15.8874 11.7952 15.9069 11.7691 15.918 11.7383Z" fill="#D2DEE8"/>
<path fill-rule="evenodd" clip-rule="evenodd" d="M16.6211 12.3242C17.2313 12.6163 17.8303 12.9288 18.418 13.2617C17.8382 13.5842 17.2523 13.8967 16.6601 14.1992C16.6211 13.5748 16.6081 12.9498 16.6211 12.3242Z" fill="#F8637C"/>
<path fill-rule="evenodd" clip-rule="evenodd" d="M9.12109 15.332C11.2108 15.293 13.3072 15.28 15.4102 15.2929C15.4102 15.9309 15.4102 16.569 15.4102 17.207C13.2942 17.22 11.1848 17.207 9.08203 17.1679C9.4109 16.8913 9.69734 16.5788 9.94141 16.2304C9.71043 15.8951 9.43699 15.5957 9.12109 15.332Z" fill="#FB647D"/>
<path fill-rule="evenodd" clip-rule="evenodd" d="M9.08203 17.168C11.1848 17.207 13.2942 17.22 15.4102 17.207C15.4102 16.569 15.4102 15.931 15.4102 15.293C13.3072 15.28 11.2108 15.293 9.12109 15.332C9.09988 15.3297 9.08687 15.3167 9.08203 15.293C11.2043 15.2539 13.3267 15.2409 15.4492 15.2539C15.4492 15.918 15.4492 16.582 15.4492 17.2461C13.3136 17.2591 11.1782 17.2461 9.04297 17.207C9.04781 17.1833 9.06082 17.1703 9.08203 17.168Z" fill="#843542"/>
<path opacity="0.944" fill-rule="evenodd" clip-rule="evenodd" d="M5.91797 18.1055C6.01898 18.2729 6.13617 18.4357 6.26953 18.5938C6.40324 18.6839 6.54645 18.7555 6.69922 18.8086C6.53707 18.8831 6.38082 18.9678 6.23047 19.0625C6.10398 19.2048 6.01281 19.3675 5.95703 19.5508C5.82684 19.1862 5.57941 18.9388 5.21484 18.8086C5.56801 18.6898 5.80238 18.4554 5.91797 18.1055Z" fill="#F5C84C"/>
<path opacity="0.905" fill-rule="evenodd" clip-rule="evenodd" d="M8.53524 19.9804C8.43106 19.9804 8.32692 19.9804 8.22274 19.9804C8.08336 19.8306 8.07031 19.6679 8.18367 19.4922C8.54231 19.3623 8.69207 19.486 8.63289 19.8632C8.59207 19.8973 8.55953 19.9364 8.53524 19.9804Z" fill="#87D147"/>
</g>
<defs>
<clipPath id="clip0_440_7555">
<rect width="20" height="20" fill="white"/>
</clipPath>
</defs>
</svg>
