<svg width="21" height="20" viewBox="0 0 21 20" fill="none" xmlns="http://www.w3.org/2000/svg">
<path opacity="0.985" fill-rule="evenodd" clip-rule="evenodd" d="M12.707 0.292969C14.3477 0.286458 15.9883 0.292969 17.6289 0.3125C17.9479 0.423176 18.1628 0.638019 18.2734 0.957031C18.3118 2.43072 18.2987 3.90208 18.2344 5.37109C18.1049 5.63082 17.9031 5.8066 17.6289 5.89844C17.0171 5.91797 16.4051 5.92449 15.793 5.91797C15.7995 5.70922 15.7929 5.5009 15.7734 5.29297C15.7013 4.83035 15.4344 4.64156 14.9727 4.72656C14.7167 4.82816 14.58 5.01695 14.5625 5.29297C14.543 5.5009 14.5365 5.70922 14.543 5.91797C13.7096 5.91797 12.8763 5.91797 12.043 5.91797C12.043 5.39715 12.043 4.87629 12.043 4.35547C11.2489 4.31656 10.8322 3.89991 10.793 3.10547C10.8322 2.31103 11.2489 1.89436 12.043 1.85547C12.027 1.51368 12.0465 1.17514 12.1016 0.839844C12.238 0.579469 12.4398 0.39718 12.707 0.292969Z" fill="black"/>
<path fill-rule="evenodd" clip-rule="evenodd" d="M12.8636 0.917969C14.4001 0.911458 15.9366 0.917969 17.473 0.937501C17.5289 0.955672 17.5744 0.988227 17.6097 1.03516C17.6743 2.386 17.6873 3.74017 17.6488 5.09766C17.6162 5.18231 17.5576 5.2409 17.473 5.27344C17.1217 5.29297 16.7701 5.29945 16.4183 5.29297C16.3465 4.49859 15.9103 4.08191 15.1097 4.04297C14.3724 4.13578 13.9752 4.55242 13.9183 5.29297C13.5016 5.29297 13.085 5.29297 12.6683 5.29297C12.6683 4.77215 12.6683 4.25129 12.6683 3.73047C12.3945 3.73697 12.1211 3.73045 11.848 3.71094C11.441 3.49592 11.3303 3.17691 11.516 2.75391C11.6044 2.63932 11.7151 2.55468 11.848 2.5C12.1211 2.48048 12.3945 2.47397 12.6683 2.48047C12.6618 2.02456 12.6683 1.56882 12.6878 1.11328C12.7279 1.02785 12.7865 0.962751 12.8636 0.917969Z" fill="#FBD66F"/>
<path opacity="0.98" fill-rule="evenodd" clip-rule="evenodd" d="M8.01937 2.16797C8.52718 2.16797 9.03499 2.16797 9.5428 2.16797C9.5428 3.10547 9.5428 4.04297 9.5428 4.98047C9.33405 4.97398 9.12573 4.98051 8.9178 5C8.45519 5.07215 8.2664 5.33906 8.3514 5.80078C8.453 6.05676 8.64179 6.19348 8.9178 6.21094C9.12573 6.23043 9.33405 6.23695 9.5428 6.23047C9.5428 6.75129 9.5428 7.27215 9.5428 7.79297C9.95948 7.79297 10.3761 7.79297 10.7928 7.79297C10.8317 6.99887 11.2484 6.58219 12.0428 6.54297C12.8373 6.58219 13.2539 6.99887 13.2928 7.79297C13.9178 7.79297 14.5428 7.79297 15.1678 7.79297C15.2584 9.89625 14.5032 11.6215 12.9022 12.9688C12.5181 13.2747 12.1339 13.5807 11.7498 13.8867C11.7174 14.1611 11.7239 14.4345 11.7694 14.707C12.3697 15.0435 12.5195 15.5252 12.2186 16.1523C12.0737 16.3255 11.898 16.4557 11.6912 16.543C11.7745 16.8642 11.7289 17.1637 11.5545 17.4414C11.4143 17.5794 11.2646 17.7031 11.1053 17.8125C10.7544 19.1664 9.88198 19.7784 8.48812 19.6484C7.50593 19.3852 6.90698 18.7537 6.69124 17.7539C6.18069 17.5009 5.99839 17.0972 6.14437 16.543C5.55155 16.2817 5.34972 15.8389 5.5389 15.2148C5.65718 14.9859 5.83296 14.8166 6.06624 14.707C6.11171 14.4345 6.11823 14.1611 6.08577 13.8867C5.40019 13.3707 4.74913 12.8108 4.13265 12.207C2.59144 10.2825 2.25291 8.16008 3.11702 5.83984C4.09486 3.73961 5.72898 2.51564 8.01937 2.16797Z" fill="#010100"/>
<path fill-rule="evenodd" clip-rule="evenodd" d="M8.09766 2.79297C8.37109 2.79297 8.64453 2.79297 8.91797 2.79297C8.91797 3.3138 8.91797 3.83464 8.91797 4.35547C8.17742 4.41238 7.76078 4.80953 7.66797 5.54688C7.70691 6.34746 8.12359 6.78367 8.91797 6.85547C8.91797 7.16797 8.91797 7.48047 8.91797 7.79297C8.50129 7.79297 8.08465 7.79297 7.66797 7.79297C7.59617 6.99859 7.15996 6.58191 6.35938 6.54297C5.62203 6.63578 5.22488 7.05242 5.16797 7.79297C4.55598 7.79297 3.94401 7.79297 3.33203 7.79297C3.57592 5.49801 4.77383 3.92898 6.92578 3.08594C7.31832 2.97419 7.70895 2.87653 8.09766 2.79297Z" fill="#FAD56F"/>
<path fill-rule="evenodd" clip-rule="evenodd" d="M6.22266 7.16803C6.59992 7.11244 6.86684 7.25565 7.02344 7.59772C7.04297 7.87084 7.04945 8.14428 7.04297 8.41803C7.66797 8.41803 8.29297 8.41803 8.91797 8.41803C8.91797 8.83471 8.91797 9.25135 8.91797 9.66803C8.17742 9.72494 7.76078 10.1221 7.66797 10.8594C7.70691 11.66 8.12359 12.0962 8.91797 12.168C8.91797 13.0013 8.91797 13.8347 8.91797 14.668C8.18879 14.668 7.45965 14.668 6.73047 14.668C6.73695 14.3032 6.73047 13.9386 6.71094 13.5743C5.94707 12.9799 5.21789 12.3419 4.52344 11.6602C3.77134 10.713 3.36119 9.63221 3.29297 8.41803C4.1263 8.41803 4.95965 8.41803 5.79297 8.41803C5.78648 8.14428 5.79297 7.87084 5.8125 7.59772C5.90457 7.40807 6.04129 7.26487 6.22266 7.16803Z" fill="#FBD66F"/>
<path fill-rule="evenodd" clip-rule="evenodd" d="M11.848 7.16803C12.2253 7.11244 12.4922 7.25565 12.6488 7.59772C12.6683 7.87084 12.6748 8.14428 12.6683 8.41803C13.2933 8.41803 13.9183 8.41803 14.5433 8.41803C14.4394 10.0125 13.7884 11.3341 12.5902 12.3829C12.0912 12.766 11.6029 13.1631 11.1253 13.5743C11.1058 13.9386 11.0993 14.3032 11.1058 14.668C10.585 14.668 10.0641 14.668 9.5433 14.668C9.5433 13.6263 9.5433 12.5847 9.5433 11.543C9.26955 11.5495 8.99611 11.543 8.72299 11.5235C8.31596 11.3085 8.20529 10.9895 8.39096 10.5665C8.47939 10.4519 8.5901 10.3672 8.72299 10.3126C8.99611 10.293 9.26955 10.2865 9.5433 10.293C9.5433 9.66803 9.5433 9.04303 9.5433 8.41803C10.1683 8.41803 10.7933 8.41803 11.4183 8.41803C11.4118 8.14428 11.4183 7.87084 11.4378 7.59772C11.5299 7.40807 11.6666 7.26487 11.848 7.16803Z" fill="#FBD66F"/>
<path fill-rule="evenodd" clip-rule="evenodd" d="M6.3004 15.293C8.04525 15.2865 9.79005 15.293 11.5348 15.3125C11.7315 15.4302 11.777 15.593 11.6715 15.8008C11.6362 15.8477 11.5907 15.8803 11.5348 15.8984C9.78997 15.9245 8.04521 15.9245 6.3004 15.8984C6.10372 15.7807 6.05814 15.618 6.16368 15.4102C6.20841 15.3658 6.254 15.3267 6.3004 15.293Z" fill="#CBD0D8"/>
<path fill-rule="evenodd" clip-rule="evenodd" d="M6.9254 16.543C8.25361 16.5365 9.58173 16.543 10.9098 16.5625C11.1065 16.6802 11.152 16.843 11.0465 17.0508C11.0112 17.0977 10.9657 17.1303 10.9098 17.1484C9.58165 17.1745 8.25353 17.1745 6.9254 17.1484C6.72872 17.0307 6.68314 16.868 6.78868 16.6602C6.83341 16.6158 6.879 16.5767 6.9254 16.543Z" fill="#CACFD7"/>
<path fill-rule="evenodd" clip-rule="evenodd" d="M7.39453 17.793C8.41051 17.78 9.42613 17.793 10.4414 17.832C10.2074 18.6166 9.68008 19.0202 8.85938 19.043C8.07766 18.9709 7.58937 18.5543 7.39453 17.793Z" fill="#A8B0BB"/>
</svg>
