<svg width="20" height="20" viewBox="0 0 20 20" fill="none" xmlns="http://www.w3.org/2000/svg">
<g clip-path="url(#clip0_440_7505)">
<path opacity="0.993" fill-rule="evenodd" clip-rule="evenodd" d="M4.98047 -0.0195312C8.07941 -0.0195312 11.1784 -0.0195312 14.2773 -0.0195312C14.6021 0.116465 14.83 0.35084 14.9609 0.683594C14.987 2.61068 14.987 4.53777 14.9609 6.46484C14.9059 6.59332 14.8082 6.65844 14.668 6.66016C14.5093 6.65141 14.3986 6.57328 14.3359 6.42578C14.3229 4.56379 14.3099 2.70182 14.2969 0.839844C14.2366 0.766473 14.165 0.707879 14.082 0.664062C13.9132 0.64457 13.744 0.638059 13.5742 0.644531C10.8138 0.644531 8.0534 0.644531 5.29297 0.644531C5.29949 1.85554 5.29297 3.06648 5.27344 4.27734C5.13637 4.80504 4.80434 5.13707 4.27734 5.27344C3.06648 5.29297 1.85554 5.29949 0.644531 5.29297C0.625152 9.91852 0.644684 14.5409 0.703125 19.1602C0.748699 19.2057 0.79427 19.2513 0.839844 19.2969C5.08461 19.3164 9.32941 19.3229 13.5742 19.3164C13.744 19.3229 13.9132 19.3164 14.082 19.2969C14.1797 19.2513 14.2513 19.1797 14.2969 19.082C14.3099 17.2331 14.3229 15.3841 14.3359 13.5352C14.3986 13.3877 14.5093 13.3095 14.668 13.3008C14.8082 13.3025 14.9059 13.3676 14.9609 13.4961C14.987 15.4232 14.987 17.3503 14.9609 19.2773C14.83 19.6101 14.6021 19.8445 14.2773 19.9805C9.74609 19.9805 5.21484 19.9805 0.683594 19.9805C0.358073 19.8372 0.123698 19.6029 -0.0195312 19.2773C-0.0195312 14.5117 -0.0195312 9.74609 -0.0195312 4.98047C0.037268 4.86688 0.0958617 4.74969 0.15625 4.62891C1.64714 3.13802 3.13802 1.64714 4.62891 0.15625C4.74969 0.0958617 4.86688 0.037268 4.98047 -0.0195312Z" fill="#010101"/>
<path fill-rule="evenodd" clip-rule="evenodd" d="M13.5746 0.644531C13.5828 0.700066 13.6023 0.752148 13.6332 0.800781C13.6527 3.30075 13.6593 5.80074 13.6527 8.30078C11.5199 9.7843 9.3845 11.2687 7.2465 12.7539C6.45579 13.8534 5.69407 14.9732 4.96134 16.1133C4.94204 16.1771 4.93556 16.2422 4.94181 16.3086C4.03025 16.3021 3.1188 16.3086 2.20743 16.3281C1.91208 16.5166 1.89906 16.725 2.16837 16.9531C3.37931 16.9792 4.59025 16.9792 5.80118 16.9531C6.9815 16.6483 8.16638 16.3618 9.35587 16.0938C9.50536 16.0255 9.64857 15.9474 9.78556 15.8594C11.0571 14.97 12.3331 14.0911 13.6137 13.2227C13.6592 15.1692 13.6657 17.1223 13.6332 19.082C13.6135 19.1609 13.594 19.239 13.5746 19.3164C9.32982 19.3229 5.08501 19.3164 0.840246 19.2969C0.794672 19.2513 0.749102 19.2057 0.703528 19.1602C0.645086 14.5409 0.625555 9.91852 0.644934 5.29297C1.85594 5.29949 3.06688 5.29297 4.27775 5.27344C4.80474 5.13707 5.13677 4.80504 5.27384 4.27734C5.29337 3.06648 5.29989 1.85554 5.29337 0.644531C8.0538 0.644531 10.8142 0.644531 13.5746 0.644531Z" fill="#FDE1C9"/>
<path fill-rule="evenodd" clip-rule="evenodd" d="M13.5742 0.64451C13.744 0.638037 13.9132 0.644549 14.082 0.664041C14.165 0.707858 14.2366 0.766451 14.2969 0.839822C14.3099 2.7018 14.3229 4.56377 14.3359 6.42576C14.3986 6.57326 14.5093 6.65138 14.668 6.66013C14.668 6.95963 14.668 7.25908 14.668 7.55857C14.3539 7.83271 14.0154 8.0801 13.6523 8.30076C13.6589 5.80072 13.6523 3.30072 13.6328 0.80076C13.6019 0.752127 13.5824 0.700045 13.5742 0.64451Z" fill="#FDE1C9"/>
<path fill-rule="evenodd" clip-rule="evenodd" d="M4.58984 1.15234C4.63527 2.16133 4.6418 3.17696 4.60938 4.19922C4.52473 4.38801 4.38801 4.52473 4.19922 4.60938C3.18359 4.63543 2.16797 4.63543 1.15234 4.60938C2.30605 3.46219 3.45188 2.30984 4.58984 1.15234Z" fill="#FDE1C9"/>
<path fill-rule="evenodd" clip-rule="evenodd" d="M10.1761 1.66016C11.1528 1.65365 12.1293 1.66016 13.1058 1.67969C13.2843 1.77896 13.3429 1.9287 13.2816 2.12891C13.2213 2.20228 13.1497 2.26087 13.0667 2.30469C12.1162 2.33073 11.1657 2.33073 10.2152 2.30469C9.91975 2.10262 9.90674 1.88778 10.1761 1.66016Z" fill="#060606"/>
<path fill-rule="evenodd" clip-rule="evenodd" d="M11.191 2.98828C11.8292 2.98177 12.4672 2.98828 13.1051 3.00781C13.2836 3.10708 13.3422 3.25682 13.2809 3.45703C13.2376 3.54745 13.1659 3.60604 13.066 3.63281C12.441 3.65885 11.816 3.65885 11.191 3.63281C10.9915 3.50132 10.9459 3.32554 11.0543 3.10547C11.0991 3.06108 11.1446 3.02201 11.191 2.98828Z" fill="#040404"/>
<path opacity="0.989" fill-rule="evenodd" clip-rule="evenodd" d="M19.9808 7.793C19.9808 8.00132 19.9808 8.20968 19.9808 8.418C19.8727 8.73046 19.6904 8.99741 19.4339 9.21878C17.8493 10.3157 16.2608 11.4029 14.6683 12.4805C14.305 12.714 13.9534 12.9614 13.6136 13.2227C12.333 14.0912 11.057 14.9701 9.78544 15.8594C9.64845 15.9475 9.50525 16.0256 9.35576 16.0938C8.16626 16.3619 6.98138 16.6483 5.80107 16.9532C4.59013 16.9792 3.37919 16.9792 2.16826 16.9532C1.89894 16.725 1.91196 16.5166 2.20732 16.3282C3.11869 16.3086 4.03013 16.3021 4.94169 16.3086C4.93544 16.2423 4.94193 16.1771 4.96122 16.1133C5.69396 14.9732 6.45568 13.8534 7.24638 12.7539C9.38439 11.2687 11.5198 9.78433 13.6526 8.30081C14.0156 8.08015 14.3542 7.83276 14.6683 7.55862C15.5193 6.98784 16.3656 6.40839 17.2073 5.82034C17.8915 5.51444 18.484 5.63816 18.9847 6.19144C19.2354 6.57585 19.4959 6.95343 19.7659 7.32425C19.8504 7.47976 19.922 7.63601 19.9808 7.793Z" fill="#030101"/>
<path fill-rule="evenodd" clip-rule="evenodd" d="M17.2461 9.58984C17.5965 9.34933 17.9481 9.10847 18.3008 8.86719C18.6222 8.55414 18.7198 8.18304 18.5938 7.7539C18.2944 7.29215 17.9884 6.83644 17.6758 6.38672C17.9993 6.29277 18.2663 6.3839 18.4766 6.66015C18.7654 7.06625 19.0388 7.48293 19.2969 7.91015C19.3564 8.22562 19.2588 8.47953 19.0039 8.67187C18.467 9.04777 17.9266 9.41886 17.3828 9.78515C17.3369 9.7189 17.2913 9.65383 17.2461 9.58984Z" fill="#AA1355"/>
<path fill-rule="evenodd" clip-rule="evenodd" d="M17.6758 6.38672C17.9884 6.83645 18.2944 7.29215 18.5938 7.75391C18.7198 8.18305 18.6222 8.55414 18.3008 8.86719C17.9481 9.10848 17.5965 9.34934 17.2461 9.58984C16.7811 8.93371 16.3254 8.26965 15.8789 7.59766C16.4579 7.16141 17.0569 6.75777 17.6758 6.38672Z" fill="#E71D62"/>
<path fill-rule="evenodd" clip-rule="evenodd" d="M2.16799 6.66016C5.70967 6.65364 9.25135 6.66016 12.793 6.67969C12.9912 6.79797 13.0368 6.96071 12.9297 7.16797C12.8782 7.24559 12.8066 7.29118 12.7149 7.30469C9.21225 7.33075 5.70967 7.33075 2.20705 7.30469C1.91205 7.10454 1.89903 6.88969 2.16799 6.66016Z" fill="#060606"/>
<path fill-rule="evenodd" clip-rule="evenodd" d="M15.8789 10.5273C15.995 10.4562 16.1122 10.3845 16.2305 10.3125C16.2702 10.2715 16.2767 10.2259 16.25 10.1758C15.7999 9.53516 15.3507 8.89715 14.9023 8.26172C15.0333 8.14906 15.1765 8.06441 15.332 8.00781C15.8344 8.71207 16.3292 9.42168 16.8164 10.1367C16.5714 10.3506 16.3111 10.5459 16.0352 10.7227C15.955 10.6793 15.9029 10.6142 15.8789 10.5273Z" fill="#F9BE07"/>
<path fill-rule="evenodd" clip-rule="evenodd" d="M14.9027 8.26172C15.3511 8.89715 15.8003 9.53516 16.2504 10.1758C16.2771 10.2259 16.2706 10.2715 16.2308 10.3125C16.1126 10.3845 15.9954 10.4562 15.8793 10.5273C15.4309 9.89191 14.9817 9.25391 14.5316 8.61328C14.5024 8.56895 14.5089 8.52988 14.5512 8.49609C14.6691 8.41695 14.7862 8.33883 14.9027 8.26172Z" fill="#FBD800"/>
<path fill-rule="evenodd" clip-rule="evenodd" d="M2.20717 8.30079C4.91553 8.29426 7.62385 8.30079 10.3322 8.32032C10.5615 8.43813 10.6201 8.61391 10.508 8.84766C10.4727 8.89458 10.4271 8.92715 10.3712 8.94532C7.63686 8.97137 4.90248 8.97137 2.16811 8.94532C1.9003 8.71485 1.91332 8.50001 2.20717 8.30079Z" fill="#070707"/>
<path fill-rule="evenodd" clip-rule="evenodd" d="M9.27734 15.0586C11.1605 13.8075 13.029 12.5314 14.8828 11.2305C14.9089 11.1914 14.9089 11.1523 14.8828 11.1133C14.4661 10.5143 14.0495 9.91535 13.6328 9.31641C13.6009 9.26473 13.5554 9.23871 13.4961 9.23828C13.6388 9.12875 13.7886 9.02461 13.9453 8.92578C14.4563 9.64816 14.9576 10.3773 15.4492 11.1133C13.4646 12.4794 11.4855 13.853 9.51172 15.2344C9.47266 15.2604 9.43359 15.2604 9.39453 15.2344C9.35992 15.1713 9.32086 15.1127 9.27734 15.0586Z" fill="#C41D1D"/>
<path fill-rule="evenodd" clip-rule="evenodd" d="M13.4961 9.23828C13.5554 9.23871 13.6009 9.26473 13.6328 9.31641C14.0495 9.91535 14.4661 10.5143 14.8828 11.1133C14.9089 11.1523 14.9089 11.1914 14.8828 11.2305C13.029 12.5314 11.1605 13.8075 9.27735 15.0586C8.84974 14.4289 8.41356 13.8039 7.96876 13.1836C7.94271 13.1445 7.94271 13.1055 7.96876 13.0664C9.80892 11.7852 11.6514 10.5091 13.4961 9.23828Z" fill="#F34234"/>
<path fill-rule="evenodd" clip-rule="evenodd" d="M2.20737 9.98047C4.10846 9.97395 6.00948 9.98047 7.91049 10C8.07323 10.0385 8.15135 10.1427 8.14487 10.3125C8.15135 10.4823 8.07323 10.5865 7.91049 10.625C5.99643 10.6511 4.08237 10.6511 2.16831 10.625C1.90154 10.3907 1.91456 10.1759 2.20737 9.98047Z" fill="black"/>
<path fill-rule="evenodd" clip-rule="evenodd" d="M14.668 12.4805C14.668 12.7539 14.668 13.0273 14.668 13.3008C14.5093 13.3095 14.3986 13.3877 14.3359 13.5352C14.3229 15.3841 14.3099 17.2331 14.2969 19.082C14.2513 19.1797 14.1797 19.2513 14.082 19.2969C13.9132 19.3164 13.744 19.3229 13.5742 19.3164C13.5936 19.239 13.6131 19.1609 13.6328 19.082C13.6653 17.1223 13.6588 15.1692 13.6133 13.2227C13.9531 12.9613 14.3047 12.7139 14.668 12.4805Z" fill="#A59282"/>
<path fill-rule="evenodd" clip-rule="evenodd" d="M2.16822 12.9883C3.09279 12.9818 4.01729 12.9883 4.94166 13.0078C5.14123 13.1393 5.18682 13.3151 5.07838 13.5352C5.02295 13.5727 4.96436 13.6052 4.9026 13.6328C4.00416 13.6589 3.10572 13.6589 2.20729 13.6328C1.90936 13.4379 1.89634 13.223 2.16822 12.9883Z" fill="#030303"/>
<path fill-rule="evenodd" clip-rule="evenodd" d="M8.26172 15.6445C7.95613 15.1899 7.65012 14.7342 7.34375 14.2773C7.28805 14.1888 7.21641 14.1237 7.12891 14.082C7.21582 13.9102 7.32652 13.754 7.46094 13.6133C7.92762 14.2481 8.36383 14.8992 8.76953 15.5664C8.60027 15.5925 8.43098 15.6185 8.26172 15.6445Z" fill="#DBC199"/>
<path fill-rule="evenodd" clip-rule="evenodd" d="M7.12891 14.082C7.21641 14.1237 7.28805 14.1888 7.34375 14.2773C7.65012 14.7342 7.95613 15.1899 8.26172 15.6445C7.99082 15.7433 7.7109 15.8214 7.42188 15.8789C7.15211 15.5181 6.8982 15.147 6.66016 14.7656C6.81047 14.5312 6.96672 14.3034 7.12891 14.082Z" fill="#FBDCAF"/>
<path fill-rule="evenodd" clip-rule="evenodd" d="M2.16772 14.668C2.72776 14.6615 3.28766 14.668 3.8474 14.6875C4.05272 14.8798 4.05272 15.0752 3.8474 15.2734C3.28751 15.2995 2.72761 15.2995 2.16772 15.2734C1.90894 15.0685 1.90894 14.8667 2.16772 14.668Z" fill="#020202"/>
<path fill-rule="evenodd" clip-rule="evenodd" d="M6.23047 15.3711C6.39066 15.5798 6.54691 15.7947 6.69922 16.0156C6.33812 16.132 5.97355 16.2231 5.60547 16.2891C5.81902 15.9854 6.02734 15.6793 6.23047 15.3711Z" fill="#51595D"/>
<path fill-rule="evenodd" clip-rule="evenodd" d="M12.832 15.9961C13.0127 15.9648 13.1625 16.017 13.2812 16.1523C13.3192 16.833 13.3062 17.5101 13.2422 18.1836C13.2069 18.2305 13.1614 18.2631 13.1055 18.2812C12.4544 18.3073 11.8034 18.3073 11.1523 18.2812C10.9232 18.0362 10.9493 17.8279 11.2305 17.6562C11.699 17.6367 12.1678 17.6302 12.6367 17.6367C12.6302 17.1678 12.6367 16.699 12.6562 16.2305C12.6945 16.1341 12.7531 16.0559 12.832 15.9961Z" fill="#050505"/>
</g>
<defs>
<clipPath id="clip0_440_7505">
<rect width="20" height="20" fill="white"/>
</clipPath>
</defs>
</svg>
