<svg width="24" height="25" viewBox="0 0 24 25" fill="none" xmlns="http://www.w3.org/2000/svg">
<path d="M11.3 19.9197C11.1167 19.7363 11.0207 19.503 11.012 19.2197C11.0033 18.9363 11.091 18.703 11.275 18.5197L16.175 13.6197H5C4.71667 13.6197 4.479 13.5237 4.287 13.3317C4.095 13.1397 3.99934 12.9023 4 12.6197C4 12.3363 4.096 12.0987 4.288 11.9067C4.48 11.7147 4.71734 11.619 5 11.6197H16.175L11.275 6.71968C11.0917 6.53634 11.004 6.30301 11.012 6.01968C11.02 5.73634 11.116 5.50301 11.3 5.31968C11.4833 5.13634 11.7167 5.04468 12 5.04468C12.2833 5.04468 12.5167 5.13634 12.7 5.31968L19.3 11.9197C19.4 12.003 19.471 12.1073 19.513 12.2327C19.555 12.358 19.5757 12.487 19.575 12.6197C19.575 12.753 19.5543 12.878 19.513 12.9947C19.4717 13.1113 19.4007 13.2197 19.3 13.3197L12.7 19.9197C12.5167 20.103 12.2833 20.1947 12 20.1947C11.7167 20.1947 11.4833 20.103 11.3 19.9197Z" fill="white"/>
</svg>
