<svg width="24" height="24" viewBox="0 0 24 24" fill="none" xmlns="http://www.w3.org/2000/svg">
<path d="M4.05 21C3.88333 21 3.70833 20.9957 3.525 20.987C3.34167 20.9783 3.16667 20.966 3 20.95V15.1L8 14.1L10.9 17C12.1667 16.2333 13.3293 15.325 14.388 14.275C15.4467 13.225 16.3257 12.1 17.025 10.9L14.175 8.025L15.1 3H20.95C20.9833 3.16667 21 3.34167 21 3.525V4.05C21 6.2 20.521 8.296 19.563 10.338C18.605 12.38 17.3383 14.1923 15.763 15.775C14.1877 17.3583 12.3793 18.625 10.338 19.575C8.29667 20.525 6.20067 21 4.05 21ZM17.975 9C18.2583 8.35 18.475 7.69167 18.625 7.025C18.775 6.35833 18.8917 5.68333 18.975 5H16.75L16.325 7.35L17.975 9ZM9.025 17.95L7.35 16.275L5 16.75V18.95C5.68333 18.9 6.36267 18.7917 7.038 18.625C7.71333 18.4583 8.37567 18.2333 9.025 17.95Z" fill="#717171"/>
</svg>
